<?xml version="1.0" standalone="yes"?>
<!-- SVG graphic -->
<svg xmlns='http://www.w3.org/2000/svg' xmlns:xlink='http://www.w3.org/1999/xlink'
width="70px" height="70px" preserveAspectRatio="xMinYMin meet" viewBox="0 0 70 70" version="1.1">
<rect x="5" y="0" width="2.5" height="2.5" fill="rgb(199,0,55)" opacity="1"/>
<rect x="10" y="0" width="2.5" height="2.5" fill="rgb(107,0,147)" opacity="1"/>
<rect x="15" y="0" width="2.5" height="2.5" fill="rgb(77,0,177)" opacity="1"/>
<rect x="20" y="0" width="2.5" height="2.5" fill="rgb(58,0,196)" opacity="1"/>
<rect x="25" y="0" width="2.5" height="2.5" fill="rgb(32,0,222)" opacity="1"/>
<rect x="30" y="0" width="2.5" height="2.5" fill="rgb(24,0,230)" opacity="1"/>
<rect x="35" y="0" width="2.5" height="2.5" fill="rgb(23,0,231)" opacity="1"/>
<rect x="40" y="0" width="2.5" height="2.5" fill="rgb(22,0,232)" opacity="1"/>
<rect x="10" y="5" width="2.5" height="2.5" fill="rgb(248,0,6)" opacity="1"/>
<rect x="15" y="5" width="2.5" height="2.5" fill="rgb(175,0,79)" opacity="1"/>
<rect x="20" y="5" width="2.5" height="2.5" fill="rgb(116,0,138)" opacity="1"/>
<rect x="25" y="5" width="2.5" height="2.5" fill="rgb(72,0,182)" opacity="1"/>
<rect x="30" y="5" width="2.5" height="2.5" fill="rgb(52,0,202)" opacity="1"/>
<rect x="35" y="5" width="2.5" height="2.5" fill="rgb(46,0,208)" opacity="1"/>
<rect x="40" y="5" width="2.5" height="2.5" fill="rgb(25,0,229)" opacity="1"/>
<rect x="50" y="5" width="2.5" height="2.5" fill="rgb(10,0,244)" opacity="1"/>
<rect x="15" y="10" width="2.5" height="2.5" fill="rgb(255,0,0)" opacity="1"/>
<rect x="20" y="10" width="2.5" height="2.5" fill="rgb(162,0,92)" opacity="1"/>
<rect x="25" y="10" width="2.5" height="2.5" fill="rgb(99,0,155)" opacity="1"/>
<rect x="30" y="10" width="2.5" height="2.5" fill="rgb(72,0,182)" opacity="1"/>
<rect x="35" y="10" width="2.5" height="2.5" fill="rgb(57,0,197)" opacity="1"/>
<rect x="40" y="10" width="2.5" height="2.5" fill="rgb(34,0,220)" opacity="1"/>
<rect x="45" y="10" width="2.5" height="2.5" fill="rgb(4,0,250)" opacity="1"/>
<rect x="20" y="15" width="2.5" height="2.5" fill="rgb(204,0,50)" opacity="1"/>
<rect x="25" y="15" width="2.5" height="2.5" fill="rgb(126,0,128)" opacity="1"/>
<rect x="30" y="15" width="2.5" height="2.5" fill="rgb(99,0,155)" opacity="1"/>
<rect x="35" y="15" width="2.5" height="2.5" fill="rgb(66,0,188)" opacity="1"/>
<rect x="40" y="15" width="2.5" height="2.5" fill="rgb(40,0,214)" opacity="1"/>
<rect x="45" y="15" width="2.5" height="2.5" fill="rgb(7,0,247)" opacity="1"/>
<rect x="50" y="15" width="2.5" height="2.5" fill="rgb(9,0,245)" opacity="1"/>
<rect x="25" y="20" width="2.5" height="2.5" fill="rgb(173,0,81)" opacity="1"/>
<rect x="30" y="20" width="2.5" height="2.5" fill="rgb(125,0,129)" opacity="1"/>
<rect x="35" y="20" width="2.5" height="2.5" fill="rgb(103,0,151)" opacity="1"/>
<rect x="40" y="20" width="2.5" height="2.5" fill="rgb(61,0,193)" opacity="1"/>
<rect x="45" y="20" width="2.5" height="2.5" fill="rgb(9,0,245)" opacity="1"/>
<rect x="50" y="20" width="2.5" height="2.5" fill="rgb(11,0,243)" opacity="1"/>
<rect x="30" y="25" width="2.5" height="2.5" fill="rgb(168,0,86)" opacity="1"/>
<rect x="35" y="25" width="2.5" height="2.5" fill="rgb(113,0,141)" opacity="1"/>
<rect x="40" y="25" width="2.5" height="2.5" fill="rgb(70,0,184)" opacity="1"/>
<rect x="45" y="25" width="2.5" height="2.5" fill="rgb(13,0,241)" opacity="1"/>
<rect x="50" y="25" width="2.5" height="2.5" fill="rgb(9,0,245)" opacity="1"/>
<rect x="35" y="30" width="2.5" height="2.5" fill="rgb(162,0,92)" opacity="1"/>
<rect x="40" y="30" width="2.5" height="2.5" fill="rgb(96,0,158)" opacity="1"/>
<rect x="45" y="30" width="2.5" height="2.5" fill="rgb(18,0,236)" opacity="1"/>
<rect x="50" y="30" width="2.5" height="2.5" fill="rgb(13,0,241)" opacity="1"/>
<rect x="40" y="35" width="2.5" height="2.5" fill="rgb(169,0,85)" opacity="1"/>
<rect x="45" y="35" width="2.5" height="2.5" fill="rgb(29,0,225)" opacity="1"/>
<rect x="50" y="35" width="2.5" height="2.5" fill="rgb(30,0,224)" opacity="1"/>
<rect x="45" y="40" width="2.5" height="2.5" fill="rgb(59,0,195)" opacity="1"/>
<rect x="50" y="40" width="2.5" height="2.5" fill="rgb(45,0,209)" opacity="1"/>
<rect x="50" y="45" width="2.5" height="2.5" fill="rgb(24,0,230)" opacity="1"/>
<text x="60" y="5" font-size="5" fill="black">0</text>
<text x="60" y="50" font-size="5" fill="black">11</text>
<polyline points="60,10,60,45" stroke="black" stroke-width="1" fill="none" opacity="1"/>
<text x="5" y="60" font-size="5" fill="black">0</text>
<text x="50" y="60" font-size="5" fill="black">11</text>
<polyline points="10,60,45,60" stroke="black" stroke-width="1" fill="none" opacity="1"/>
</svg>