<?xml version="1.0" standalone="yes"?>
<!-- SVG graphic -->
<svg xmlns='http://www.w3.org/2000/svg' xmlns:xlink='http://www.w3.org/1999/xlink'
width="70px" height="70px" preserveAspectRatio="xMinYMin meet" viewBox="0 0 70 70" version="1.1">
<rect x="5" y="0" width="2.5" height="2.5" fill="rgb(223,0,31)" opacity="1"/>
<rect x="10" y="0" width="2.5" height="2.5" fill="rgb(135,0,119)" opacity="1"/>
<rect x="15" y="0" width="2.5" height="2.5" fill="rgb(100,0,154)" opacity="1"/>
<rect x="20" y="0" width="2.5" height="2.5" fill="rgb(86,0,168)" opacity="1"/>
<rect x="25" y="0" width="2.5" height="2.5" fill="rgb(61,0,193)" opacity="1"/>
<rect x="30" y="0" width="2.5" height="2.5" fill="rgb(53,0,201)" opacity="1"/>
<rect x="35" y="0" width="2.5" height="2.5" fill="rgb(58,0,196)" opacity="1"/>
<rect x="40" y="0" width="2.5" height="2.5" fill="rgb(49,0,205)" opacity="1"/>
<rect x="45" y="0" width="2.5" height="2.5" fill="rgb(23,0,231)" opacity="1"/>
<rect x="50" y="0" width="2.5" height="2.5" fill="rgb(52,0,202)" opacity="1"/>
<rect x="10" y="5" width="2.5" height="2.5" fill="rgb(255,0,0)" opacity="1"/>
<rect x="15" y="5" width="2.5" height="2.5" fill="rgb(187,0,67)" opacity="1"/>
<rect x="20" y="5" width="2.5" height="2.5" fill="rgb(141,0,113)" opacity="1"/>
<rect x="25" y="5" width="2.5" height="2.5" fill="rgb(96,0,158)" opacity="1"/>
<rect x="30" y="5" width="2.5" height="2.5" fill="rgb(79,0,175)" opacity="1"/>
<rect x="35" y="5" width="2.5" height="2.5" fill="rgb(80,0,174)" opacity="1"/>
<rect x="40" y="5" width="2.5" height="2.5" fill="rgb(59,0,195)" opacity="1"/>
<rect x="45" y="5" width="2.5" height="2.5" fill="rgb(23,0,231)" opacity="1"/>
<rect x="50" y="5" width="2.5" height="2.5" fill="rgb(50,0,204)" opacity="1"/>
<rect x="15" y="10" width="2.5" height="2.5" fill="rgb(254,0,0)" opacity="1"/>
<rect x="20" y="10" width="2.5" height="2.5" fill="rgb(185,0,69)" opacity="1"/>
<rect x="25" y="10" width="2.5" height="2.5" fill="rgb(124,0,130)" opacity="1"/>
<rect x="30" y="10" width="2.5" height="2.5" fill="rgb(100,0,154)" opacity="1"/>
<rect x="35" y="10" width="2.5" height="2.5" fill="rgb(88,0,166)" opacity="1"/>
<rect x="40" y="10" width="2.5" height="2.5" fill="rgb(62,0,192)" opacity="1"/>
<rect x="45" y="10" width="2.5" height="2.5" fill="rgb(22,0,232)" opacity="1"/>
<rect x="50" y="10" width="2.5" height="2.5" fill="rgb(50,0,204)" opacity="1"/>
<rect x="20" y="15" width="2.5" height="2.5" fill="rgb(213,0,41)" opacity="1"/>
<rect x="25" y="15" width="2.5" height="2.5" fill="rgb(140,0,114)" opacity="1"/>
<rect x="30" y="15" width="2.5" height="2.5" fill="rgb(117,0,137)" opacity="1"/>
<rect x="35" y="15" width="2.5" height="2.5" fill="rgb(98,0,156)" opacity="1"/>
<rect x="40" y="15" width="2.5" height="2.5" fill="rgb(66,0,188)" opacity="1"/>
<rect x="45" y="15" width="2.5" height="2.5" fill="rgb(25,0,229)" opacity="1"/>
<rect x="50" y="15" width="2.5" height="2.5" fill="rgb(50,0,204)" opacity="1"/>
<rect x="25" y="20" width="2.5" height="2.5" fill="rgb(186,0,68)" opacity="1"/>
<rect x="30" y="20" width="2.5" height="2.5" fill="rgb(142,0,112)" opacity="1"/>
<rect x="35" y="20" width="2.5" height="2.5" fill="rgb(126,0,128)" opacity="1"/>
<rect x="40" y="20" width="2.5" height="2.5" fill="rgb(80,0,174)" opacity="1"/>
<rect x="45" y="20" width="2.5" height="2.5" fill="rgb(27,0,227)" opacity="1"/>
<rect x="50" y="20" width="2.5" height="2.5" fill="rgb(50,0,204)" opacity="1"/>
<rect x="30" y="25" width="2.5" height="2.5" fill="rgb(184,0,70)" opacity="1"/>
<rect x="35" y="25" width="2.5" height="2.5" fill="rgb(136,0,118)" opacity="1"/>
<rect x="40" y="25" width="2.5" height="2.5" fill="rgb(93,0,161)" opacity="1"/>
<rect x="45" y="25" width="2.5" height="2.5" fill="rgb(33,0,221)" opacity="1"/>
<rect x="50" y="25" width="2.5" height="2.5" fill="rgb(54,0,200)" opacity="1"/>
<rect x="35" y="30" width="2.5" height="2.5" fill="rgb(181,0,73)" opacity="1"/>
<rect x="40" y="30" width="2.5" height="2.5" fill="rgb(119,0,135)" opacity="1"/>
<rect x="45" y="30" width="2.5" height="2.5" fill="rgb(36,0,218)" opacity="1"/>
<rect x="50" y="30" width="2.5" height="2.5" fill="rgb(61,0,193)" opacity="1"/>
<rect x="40" y="35" width="2.5" height="2.5" fill="rgb(182,0,72)" opacity="1"/>
<rect x="45" y="35" width="2.5" height="2.5" fill="rgb(46,0,208)" opacity="1"/>
<rect x="50" y="35" width="2.5" height="2.5" fill="rgb(74,0,180)" opacity="1"/>
<rect x="45" y="40" width="2.5" height="2.5" fill="rgb(73,0,181)" opacity="1"/>
<rect x="50" y="40" width="2.5" height="2.5" fill="rgb(97,0,157)" opacity="1"/>
<rect x="50" y="45" width="2.5" height="2.5" fill="rgb(70,0,184)" opacity="1"/>
<text x="60" y="5" font-size="5" fill="black">0</text>
<text x="60" y="50" font-size="5" fill="black">11</text>
<polyline points="60,10,60,45" stroke="black" stroke-width="1" fill="none" opacity="1"/>
<text x="5" y="60" font-size="5" fill="black">0</text>
<text x="50" y="60" font-size="5" fill="black">11</text>
<polyline points="10,60,45,60" stroke="black" stroke-width="1" fill="none" opacity="1"/>
</svg>