<?xml version="1.0" encoding="UTF-8" standalone="no"?>
<!DOCTYPE svg PUBLIC "-//W3C//DTD SVG 1.1//EN"
 "http://www.w3.org/Graphics/SVG/1.1/DTD/svg11.dtd">
<!-- Generated by graphviz version 2.43.0 (0)
 -->
<!-- Title: 1 Pages: 1 -->
<svg width="305pt" height="371pt"
 viewBox="0.00 0.00 304.51 371.11" xmlns="http://www.w3.org/2000/svg" xmlns:xlink="http://www.w3.org/1999/xlink">
<g id="graph0" class="graph" transform="scale(1 1) rotate(0) translate(4 367.11)">
<title>1</title>
<polygon fill="white" stroke="transparent" points="-4,4 -4,-367.11 300.51,-367.11 300.51,4 -4,4"/>
<!-- n8 -->
<g id="node1" class="node">
<title>n8</title>
<ellipse fill="none" stroke="black" cx="135.17" cy="-188.54" rx="23" ry="23"/>
<text text-anchor="middle" x="135.17" y="-184.84" font-family="Times,serif" font-size="14.00">n8</text>
</g>
<!-- n10 -->
<g id="node2" class="node">
<title>n10</title>
<ellipse fill="none" stroke="black" cx="164.9" cy="-334.51" rx="28.7" ry="28.7"/>
<text text-anchor="middle" x="164.9" y="-330.81" font-family="Times,serif" font-size="14.00">n10</text>
</g>
<!-- n8&#45;&#45;n10 -->
<g id="edge1" class="edge">
<title>n8&#45;&#45;n10</title>
<path fill="none" stroke="black" d="M139.75,-211.03C144.96,-236.62 153.48,-278.46 159.14,-306.24"/>
</g>
<!-- n9 -->
<g id="node3" class="node">
<title>n9</title>
<ellipse fill="none" stroke="black" cx="22.75" cy="-171.13" rx="23" ry="23"/>
<text text-anchor="middle" x="22.75" y="-167.43" font-family="Times,serif" font-size="14.00">n9</text>
</g>
<!-- n8&#45;&#45;n9 -->
<g id="edge2" class="edge">
<title>n8&#45;&#45;n9</title>
<path fill="none" stroke="black" d="M112.69,-185.06C93.21,-182.04 65.16,-177.7 45.58,-174.66"/>
</g>
<!-- n7 -->
<g id="node4" class="node">
<title>n7</title>
<ellipse fill="none" stroke="black" cx="189.77" cy="-198.12" rx="23" ry="23"/>
<text text-anchor="middle" x="189.77" y="-194.42" font-family="Times,serif" font-size="14.00">n7</text>
</g>
<!-- n7&#45;&#45;n8 -->
<g id="edge5" class="edge">
<title>n7&#45;&#45;n8</title>
<path fill="none" stroke="black" d="M167.25,-194.17C164.08,-193.61 160.82,-193.04 157.64,-192.48"/>
</g>
<!-- n7&#45;&#45;n10 -->
<g id="edge3" class="edge">
<title>n7&#45;&#45;n10</title>
<path fill="none" stroke="black" d="M185.66,-220.64C181.39,-244.1 174.67,-280.89 170.04,-306.28"/>
</g>
<!-- n7&#45;&#45;n9 -->
<g id="edge4" class="edge">
<title>n7&#45;&#45;n9</title>
<path fill="none" stroke="black" d="M167.25,-194.48C135.37,-189.33 77.42,-179.96 45.45,-174.8"/>
</g>
<!-- n6 -->
<g id="node5" class="node">
<title>n6</title>
<ellipse fill="none" stroke="black" cx="167.79" cy="-117.14" rx="23" ry="23"/>
<text text-anchor="middle" x="167.79" y="-113.44" font-family="Times,serif" font-size="14.00">n6</text>
</g>
<!-- n6&#45;&#45;n8 -->
<g id="edge7" class="edge">
<title>n6&#45;&#45;n8</title>
<path fill="none" stroke="black" d="M158.18,-138.18C153.97,-147.39 149.04,-158.18 144.83,-167.41"/>
</g>
<!-- n6&#45;&#45;n9 -->
<g id="edge6" class="edge">
<title>n6&#45;&#45;n9</title>
<path fill="none" stroke="black" d="M146.39,-125.11C118.96,-135.31 71.7,-152.91 44.24,-163.13"/>
</g>
<!-- n6&#45;&#45;n7 -->
<g id="edge8" class="edge">
<title>n6&#45;&#45;n7</title>
<path fill="none" stroke="black" d="M173.79,-139.27C176.9,-150.7 180.67,-164.6 183.77,-176.02"/>
</g>
<!-- n5 -->
<g id="node6" class="node">
<title>n5</title>
<ellipse fill="none" stroke="black" cx="120.3" cy="-51.84" rx="23" ry="23"/>
<text text-anchor="middle" x="120.3" y="-48.14" font-family="Times,serif" font-size="14.00">n5</text>
</g>
<!-- n5&#45;&#45;n8 -->
<g id="edge10" class="edge">
<title>n5&#45;&#45;n8</title>
<path fill="none" stroke="black" d="M122.79,-74.72C125.53,-99.95 129.93,-140.32 132.68,-165.59"/>
</g>
<!-- n5&#45;&#45;n9 -->
<g id="edge9" class="edge">
<title>n5&#45;&#45;n9</title>
<path fill="none" stroke="black" d="M105.69,-69.7C87.3,-92.19 55.89,-130.6 37.45,-153.15"/>
</g>
<!-- n5&#45;&#45;n7 -->
<g id="edge11" class="edge">
<title>n5&#45;&#45;n7</title>
<path fill="none" stroke="black" d="M130.1,-72.49C143.27,-100.21 166.53,-149.2 179.79,-177.1"/>
</g>
<!-- n5&#45;&#45;n6 -->
<g id="edge12" class="edge">
<title>n5&#45;&#45;n6</title>
<path fill="none" stroke="black" d="M133.78,-70.38C140.14,-79.13 147.72,-89.55 154.11,-98.33"/>
</g>
<!-- n4 -->
<g id="node7" class="node">
<title>n4</title>
<ellipse fill="none" stroke="black" cx="100.06" cy="-105.37" rx="23" ry="23"/>
<text text-anchor="middle" x="100.06" y="-101.67" font-family="Times,serif" font-size="14.00">n4</text>
</g>
<!-- n4&#45;&#45;n8 -->
<g id="edge14" class="edge">
<title>n4&#45;&#45;n8</title>
<path fill="none" stroke="black" d="M108.92,-126.36C114.24,-138.96 120.99,-154.95 126.32,-167.56"/>
</g>
<!-- n4&#45;&#45;n9 -->
<g id="edge13" class="edge">
<title>n4&#45;&#45;n9</title>
<path fill="none" stroke="black" d="M82.52,-120.29C69.86,-131.05 52.86,-145.51 40.22,-156.26"/>
</g>
<!-- n4&#45;&#45;n7 -->
<g id="edge15" class="edge">
<title>n4&#45;&#45;n7</title>
<path fill="none" stroke="black" d="M116.1,-121.95C132.43,-138.83 157.59,-164.85 173.87,-181.68"/>
</g>
<!-- n4&#45;&#45;n6 -->
<g id="edge16" class="edge">
<title>n4&#45;&#45;n6</title>
<path fill="none" stroke="black" d="M122.61,-109.29C129.85,-110.54 137.86,-111.94 145.1,-113.2"/>
</g>
<!-- n4&#45;&#45;n5 -->
<g id="edge17" class="edge">
<title>n4&#45;&#45;n5</title>
<path fill="none" stroke="black" d="M108.17,-83.9C109.49,-80.41 110.86,-76.8 112.18,-73.31"/>
</g>
<!-- n3 -->
<g id="node8" class="node">
<title>n3</title>
<ellipse fill="none" stroke="black" cx="260.53" cy="-162.15" rx="23" ry="23"/>
<text text-anchor="middle" x="260.53" y="-158.45" font-family="Times,serif" font-size="14.00">n3</text>
</g>
<!-- n3&#45;&#45;n8 -->
<g id="edge18" class="edge">
<title>n3&#45;&#45;n8</title>
<path fill="none" stroke="black" d="M238.12,-166.87C215.44,-171.64 180.57,-178.98 157.81,-183.78"/>
</g>
<!-- n3&#45;&#45;n7 -->
<g id="edge19" class="edge">
<title>n3&#45;&#45;n7</title>
<path fill="none" stroke="black" d="M240.06,-172.55C230.76,-177.28 219.77,-182.87 210.44,-187.61"/>
</g>
<!-- n3&#45;&#45;n6 -->
<g id="edge20" class="edge">
<title>n3&#45;&#45;n6</title>
<path fill="none" stroke="black" d="M239.95,-152.16C224.58,-144.7 203.67,-134.55 188.31,-127.1"/>
</g>
<!-- n3&#45;&#45;n5 -->
<g id="edge21" class="edge">
<title>n3&#45;&#45;n5</title>
<path fill="none" stroke="black" d="M242.48,-147.95C215.56,-126.77 165.16,-87.13 138.27,-65.98"/>
</g>
<!-- n3&#45;&#45;n4 -->
<g id="edge22" class="edge">
<title>n3&#45;&#45;n4</title>
<path fill="none" stroke="black" d="M238.89,-154.49C208.17,-143.62 152.28,-123.84 121.61,-112.99"/>
</g>
<!-- n2 -->
<g id="node9" class="node">
<title>n2</title>
<ellipse fill="none" stroke="black" cx="188.92" cy="-22.75" rx="23" ry="23"/>
<text text-anchor="middle" x="188.92" y="-19.05" font-family="Times,serif" font-size="14.00">n2</text>
</g>
<!-- n2&#45;&#45;n8 -->
<g id="edge23" class="edge">
<title>n2&#45;&#45;n8</title>
<path fill="none" stroke="black" d="M181.9,-44.42C171.6,-76.2 152.5,-135.09 142.2,-166.86"/>
</g>
<!-- n2&#45;&#45;n7 -->
<g id="edge24" class="edge">
<title>n2&#45;&#45;n7</title>
<path fill="none" stroke="black" d="M189.04,-45.67C189.2,-79.29 189.5,-141.58 189.66,-175.19"/>
</g>
<!-- n2&#45;&#45;n6 -->
<g id="edge25" class="edge">
<title>n2&#45;&#45;n6</title>
<path fill="none" stroke="black" d="M183.92,-45.12C180.55,-60.17 176.12,-79.92 172.76,-94.93"/>
</g>
<!-- n2&#45;&#45;n5 -->
<g id="edge26" class="edge">
<title>n2&#45;&#45;n5</title>
<path fill="none" stroke="black" d="M167.96,-31.63C159.6,-35.18 150,-39.25 141.61,-42.81"/>
</g>
<!-- n2&#45;&#45;n4 -->
<g id="edge27" class="edge">
<title>n2&#45;&#45;n4</title>
<path fill="none" stroke="black" d="M172.21,-38.29C156.42,-52.97 132.86,-74.87 117,-89.61"/>
</g>
<!-- n2&#45;&#45;n3 -->
<g id="edge28" class="edge">
<title>n2&#45;&#45;n3</title>
<path fill="none" stroke="black" d="M199.34,-43.02C212.91,-69.45 236.52,-115.41 250.1,-141.85"/>
</g>
<!-- n1 -->
<g id="node10" class="node">
<title>n1</title>
<ellipse fill="none" stroke="black" cx="245.29" cy="-49.59" rx="23" ry="23"/>
<text text-anchor="middle" x="245.29" y="-45.89" font-family="Times,serif" font-size="14.00">n1</text>
</g>
<!-- n1&#45;&#45;n8 -->
<g id="edge29" class="edge">
<title>n1&#45;&#45;n8</title>
<path fill="none" stroke="black" d="M231.12,-67.47C210.09,-94 170.84,-143.54 149.64,-170.29"/>
</g>
<!-- n1&#45;&#45;n7 -->
<g id="edge30" class="edge">
<title>n1&#45;&#45;n7</title>
<path fill="none" stroke="black" d="M237.22,-71.19C226.69,-99.35 208.39,-148.32 197.85,-176.5"/>
</g>
<!-- n1&#45;&#45;n6 -->
<g id="edge31" class="edge">
<title>n1&#45;&#45;n6</title>
<path fill="none" stroke="black" d="M228.09,-64.58C215.25,-75.77 197.77,-91.01 184.94,-102.19"/>
</g>
<!-- n1&#45;&#45;n5 -->
<g id="edge32" class="edge">
<title>n1&#45;&#45;n5</title>
<path fill="none" stroke="black" d="M222.37,-50C199.81,-50.41 165.58,-51.02 143.08,-51.43"/>
</g>
<!-- n1&#45;&#45;n4 -->
<g id="edge33" class="edge">
<title>n1&#45;&#45;n4</title>
<path fill="none" stroke="black" d="M223.86,-57.82C196.4,-68.36 149.08,-86.54 121.58,-97.1"/>
</g>
<!-- n1&#45;&#45;n3 -->
<g id="edge34" class="edge">
<title>n1&#45;&#45;n3</title>
<path fill="none" stroke="black" d="M248.38,-72.37C251.02,-91.89 254.81,-119.88 257.45,-139.4"/>
</g>
<!-- n1&#45;&#45;n2 -->
<g id="edge35" class="edge">
<title>n1&#45;&#45;n2</title>
<path fill="none" stroke="black" d="M224.62,-39.75C219.72,-37.41 214.49,-34.92 209.59,-32.59"/>
</g>
<!-- n0 -->
<g id="node11" class="node">
<title>n0</title>
<ellipse fill="none" stroke="black" cx="273.76" cy="-103.08" rx="23" ry="23"/>
<text text-anchor="middle" x="273.76" y="-99.38" font-family="Times,serif" font-size="14.00">n0</text>
</g>
<!-- n0&#45;&#45;n8 -->
<g id="edge36" class="edge">
<title>n0&#45;&#45;n8</title>
<path fill="none" stroke="black" d="M254.2,-115.15C227.79,-131.43 181,-160.29 154.64,-176.54"/>
</g>
<!-- n0&#45;&#45;n7 -->
<g id="edge37" class="edge">
<title>n0&#45;&#45;n7</title>
<path fill="none" stroke="black" d="M258.36,-120.51C243.2,-137.66 220.2,-163.69 205.08,-180.8"/>
</g>
<!-- n0&#45;&#45;n6 -->
<g id="edge38" class="edge">
<title>n0&#45;&#45;n6</title>
<path fill="none" stroke="black" d="M251.03,-106.1C233.15,-108.47 208.35,-111.76 190.48,-114.13"/>
</g>
<!-- n0&#45;&#45;n5 -->
<g id="edge39" class="edge">
<title>n0&#45;&#45;n5</title>
<path fill="none" stroke="black" d="M252.1,-95.85C223.02,-86.14 171.62,-68.98 142.35,-59.2"/>
</g>
<!-- n0&#45;&#45;n4 -->
<g id="edge40" class="edge">
<title>n0&#45;&#45;n4</title>
<path fill="none" stroke="black" d="M250.69,-103.39C217.38,-103.82 156.16,-104.63 122.94,-105.07"/>
</g>
<!-- n0&#45;&#45;n3 -->
<g id="edge41" class="edge">
<title>n0&#45;&#45;n3</title>
<path fill="none" stroke="black" d="M268.76,-125.41C267.7,-130.12 266.59,-135.08 265.54,-139.79"/>
</g>
<!-- n0&#45;&#45;n2 -->
<g id="edge42" class="edge">
<title>n0&#45;&#45;n2</title>
<path fill="none" stroke="black" d="M257,-87.21C242.13,-73.13 220.51,-52.66 205.65,-38.59"/>
</g>
<!-- n0&#45;&#45;n1 -->
<g id="edge43" class="edge">
<title>n0&#45;&#45;n1</title>
<path fill="none" stroke="black" d="M263,-82.86C260.73,-78.6 258.34,-74.1 256.07,-69.84"/>
</g>
</g>
</svg>
