<?xml version="1.0" standalone="yes"?>
<!-- SVG graphic -->
<svg xmlns='http://www.w3.org/2000/svg' xmlns:xlink='http://www.w3.org/1999/xlink'
 version="1.1">
<rect x="0" y="0" width="6" height="200" stroke="black" stroke-width="1" fill="blue" opacity="1" tooltip="enable"><title>(0,3816)</title></rect><rect x="6" y="11.6876" width="6" height="188.312" stroke="black" stroke-width="1" fill="blue" opacity="1" tooltip="enable"><title>(0.0435576,3593)</title></rect><rect x="12" y="33.2809" width="6" height="166.719" stroke="black" stroke-width="1" fill="blue" opacity="1" tooltip="enable"><title>(0.0871152,3181)</title></rect><rect x="18" y="57.4424" width="6" height="142.558" stroke="black" stroke-width="1" fill="blue" opacity="1" tooltip="enable"><title>(0.130673,2720)</title></rect><rect x="24" y="83.9623" width="6" height="116.038" stroke="black" stroke-width="1" fill="blue" opacity="1" tooltip="enable"><title>(0.17423,2214)</title></rect><rect x="30" y="100.577" width="6" height="99.4235" stroke="black" stroke-width="1" fill="blue" opacity="1" tooltip="enable"><title>(0.217788,1897)</title></rect><rect x="36" y="117.348" width="6" height="82.652" stroke="black" stroke-width="1" fill="blue" opacity="1" tooltip="enable"><title>(0.261346,1577)</title></rect><rect x="42" y="132.233" width="6" height="67.7673" stroke="black" stroke-width="1" fill="blue" opacity="1" tooltip="enable"><title>(0.304903,1293)</title></rect><rect x="48" y="143.449" width="6" height="56.5514" stroke="black" stroke-width="1" fill="blue" opacity="1" tooltip="enable"><title>(0.348461,1079)</title></rect><rect x="54" y="154.193" width="6" height="45.8071" stroke="black" stroke-width="1" fill="blue" opacity="1" tooltip="enable"><title>(0.392018,874)</title></rect><rect x="60" y="155.66" width="6" height="44.3396" stroke="black" stroke-width="1" fill="blue" opacity="1" tooltip="enable"><title>(0.435576,846)</title></rect><rect x="66" y="165.618" width="6" height="34.3815" stroke="black" stroke-width="1" fill="blue" opacity="1" tooltip="enable"><title>(0.479134,656)</title></rect><rect x="72" y="174.161" width="6" height="25.8386" stroke="black" stroke-width="1" fill="blue" opacity="1" tooltip="enable"><title>(0.522691,493)</title></rect><rect x="78" y="177.201" width="6" height="22.7987" stroke="black" stroke-width="1" fill="blue" opacity="1" tooltip="enable"><title>(0.566249,435)</title></rect><rect x="84" y="181.551" width="6" height="18.4486" stroke="black" stroke-width="1" fill="blue" opacity="1" tooltip="enable"><title>(0.609806,352)</title></rect><rect x="90" y="182.547" width="6" height="17.4528" stroke="black" stroke-width="1" fill="blue" opacity="1" tooltip="enable"><title>(0.653364,333)</title></rect><rect x="96" y="186.373" width="6" height="13.6268" stroke="black" stroke-width="1" fill="blue" opacity="1" tooltip="enable"><title>(0.696921,260)</title></rect><rect x="102" y="185.482" width="6" height="14.5178" stroke="black" stroke-width="1" fill="blue" opacity="1" tooltip="enable"><title>(0.740479,277)</title></rect><rect x="108" y="189.256" width="6" height="10.7442" stroke="black" stroke-width="1" fill="blue" opacity="1" tooltip="enable"><title>(0.784037,205)</title></rect><rect x="114" y="191.09" width="6" height="8.90985" stroke="black" stroke-width="1" fill="blue" opacity="1" tooltip="enable"><title>(0.827594,170)</title></rect><rect x="120" y="190.461" width="6" height="9.53878" stroke="black" stroke-width="1" fill="blue" opacity="1" tooltip="enable"><title>(0.871152,182)</title></rect><rect x="126" y="191.614" width="6" height="8.38574" stroke="black" stroke-width="1" fill="blue" opacity="1" tooltip="enable"><title>(0.914709,160)</title></rect><rect x="132" y="192.925" width="6" height="7.07547" stroke="black" stroke-width="1" fill="blue" opacity="1" tooltip="enable"><title>(0.958267,135)</title></rect><rect x="138" y="193.763" width="6" height="6.2369" stroke="black" stroke-width="1" fill="blue" opacity="1" tooltip="enable"><title>(1.00182,119)</title></rect><rect x="144" y="195.755" width="6" height="4.24528" stroke="black" stroke-width="1" fill="blue" opacity="1" tooltip="enable"><title>(1.04538,81)</title></rect><rect x="150" y="194.497" width="6" height="5.50314" stroke="black" stroke-width="1" fill="blue" opacity="1" tooltip="enable"><title>(1.08894,105)</title></rect><rect x="156" y="196.226" width="6" height="3.77358" stroke="black" stroke-width="1" fill="blue" opacity="1" tooltip="enable"><title>(1.1325,72)</title></rect><rect x="162" y="196.069" width="6" height="3.93082" stroke="black" stroke-width="1" fill="blue" opacity="1" tooltip="enable"><title>(1.17606,75)</title></rect><rect x="168" y="196.331" width="6" height="3.66876" stroke="black" stroke-width="1" fill="blue" opacity="1" tooltip="enable"><title>(1.21961,70)</title></rect><rect x="174" y="197.117" width="6" height="2.8826" stroke="black" stroke-width="1" fill="blue" opacity="1" tooltip="enable"><title>(1.26317,55)</title></rect><rect x="180" y="197.589" width="6" height="2.4109" stroke="black" stroke-width="1" fill="blue" opacity="1" tooltip="enable"><title>(1.30673,46)</title></rect><rect x="186" y="197.694" width="6" height="2.30608" stroke="black" stroke-width="1" fill="blue" opacity="1" tooltip="enable"><title>(1.35029,44)</title></rect><rect x="192" y="197.117" width="6" height="2.8826" stroke="black" stroke-width="1" fill="blue" opacity="1" tooltip="enable"><title>(1.39384,55)</title></rect><rect x="198" y="197.799" width="6" height="2.20126" stroke="black" stroke-width="1" fill="blue" opacity="1" tooltip="enable"><title>(1.4374,42)</title></rect><rect x="204" y="198.113" width="6" height="1.88679" stroke="black" stroke-width="1" fill="blue" opacity="1" tooltip="enable"><title>(1.48096,36)</title></rect><rect x="210" y="198.218" width="6" height="1.78197" stroke="black" stroke-width="1" fill="blue" opacity="1" tooltip="enable"><title>(1.52452,34)</title></rect><rect x="216" y="198.533" width="6" height="1.46751" stroke="black" stroke-width="1" fill="blue" opacity="1" tooltip="enable"><title>(1.56807,28)</title></rect><rect x="222" y="198.218" width="6" height="1.78197" stroke="black" stroke-width="1" fill="blue" opacity="1" tooltip="enable"><title>(1.61163,34)</title></rect><rect x="228" y="198.008" width="6" height="1.99161" stroke="black" stroke-width="1" fill="blue" opacity="1" tooltip="enable"><title>(1.65519,38)</title></rect><rect x="234" y="198.323" width="6" height="1.67715" stroke="black" stroke-width="1" fill="blue" opacity="1" tooltip="enable"><title>(1.69875,32)</title></rect><rect x="240" y="198.428" width="6" height="1.57233" stroke="black" stroke-width="1" fill="blue" opacity="1" tooltip="enable"><title>(1.7423,30)</title></rect><rect x="246" y="199.109" width="6" height="0.890985" stroke="black" stroke-width="1" fill="blue" opacity="1" tooltip="enable"><title>(1.78586,17)</title></rect><rect x="252" y="199.423" width="6" height="0.57652" stroke="black" stroke-width="1" fill="blue" opacity="1" tooltip="enable"><title>(1.82942,11)</title></rect><rect x="258" y="198.795" width="6" height="1.20545" stroke="black" stroke-width="1" fill="blue" opacity="1" tooltip="enable"><title>(1.87298,23)</title></rect><rect x="264" y="198.533" width="6" height="1.46751" stroke="black" stroke-width="1" fill="blue" opacity="1" tooltip="enable"><title>(1.91653,28)</title></rect><rect x="270" y="199.266" width="6" height="0.733753" stroke="black" stroke-width="1" fill="blue" opacity="1" tooltip="enable"><title>(1.96009,14)</title></rect><rect x="276" y="199.109" width="6" height="0.890985" stroke="black" stroke-width="1" fill="blue" opacity="1" tooltip="enable"><title>(2.00365,17)</title></rect><rect x="282" y="199.633" width="6" height="0.366876" stroke="black" stroke-width="1" fill="blue" opacity="1" tooltip="enable"><title>(2.04721,7)</title></rect><rect x="288" y="199.423" width="6" height="0.57652" stroke="black" stroke-width="1" fill="blue" opacity="1" tooltip="enable"><title>(2.09076,11)</title></rect><rect x="294" y="199.528" width="6" height="0.471698" stroke="black" stroke-width="1" fill="blue" opacity="1" tooltip="enable"><title>(2.13432,9)</title></rect><rect x="300" y="199.371" width="6" height="0.628931" stroke="black" stroke-width="1" fill="blue" opacity="1" tooltip="enable"><title>(2.17788,12)</title></rect><rect x="306" y="199.476" width="6" height="0.524109" stroke="black" stroke-width="1" fill="blue" opacity="1" tooltip="enable"><title>(2.22144,10)</title></rect><rect x="312" y="199.004" width="6" height="0.995807" stroke="black" stroke-width="1" fill="blue" opacity="1" tooltip="enable"><title>(2.26499,19)</title></rect><rect x="318" y="199.371" width="6" height="0.628931" stroke="black" stroke-width="1" fill="blue" opacity="1" tooltip="enable"><title>(2.30855,12)</title></rect><rect x="324" y="199.633" width="6" height="0.366876" stroke="black" stroke-width="1" fill="blue" opacity="1" tooltip="enable"><title>(2.35211,7)</title></rect><rect x="330" y="199.214" width="6" height="0.786164" stroke="black" stroke-width="1" fill="blue" opacity="1" tooltip="enable"><title>(2.39567,15)</title></rect><rect x="336" y="199.633" width="6" height="0.366876" stroke="black" stroke-width="1" fill="blue" opacity="1" tooltip="enable"><title>(2.43923,7)</title></rect><rect x="342" y="199.423" width="6" height="0.57652" stroke="black" stroke-width="1" fill="blue" opacity="1" tooltip="enable"><title>(2.48278,11)</title></rect><rect x="348" y="199.686" width="6" height="0.314465" stroke="black" stroke-width="1" fill="blue" opacity="1" tooltip="enable"><title>(2.52634,6)</title></rect><rect x="354" y="199.633" width="6" height="0.366876" stroke="black" stroke-width="1" fill="blue" opacity="1" tooltip="enable"><title>(2.5699,7)</title></rect><rect x="360" y="199.79" width="6" height="0.209644" stroke="black" stroke-width="1" fill="blue" opacity="1" tooltip="enable"><title>(2.61346,4)</title></rect><rect x="366" y="199.843" width="6" height="0.157233" stroke="black" stroke-width="1" fill="blue" opacity="1" tooltip="enable"><title>(2.65701,3)</title></rect><rect x="372" y="199.686" width="6" height="0.314465" stroke="black" stroke-width="1" fill="blue" opacity="1" tooltip="enable"><title>(2.70057,6)</title></rect><rect x="378" y="199.895" width="6" height="0.104822" stroke="black" stroke-width="1" fill="blue" opacity="1" tooltip="enable"><title>(2.74413,2)</title></rect><rect x="384" y="199.895" width="6" height="0.104822" stroke="black" stroke-width="1" fill="blue" opacity="1" tooltip="enable"><title>(2.78769,2)</title></rect><rect x="390" y="199.738" width="6" height="0.262055" stroke="black" stroke-width="1" fill="blue" opacity="1" tooltip="enable"><title>(2.83124,5)</title></rect><rect x="396" y="199.79" width="6" height="0.209644" stroke="black" stroke-width="1" fill="blue" opacity="1" tooltip="enable"><title>(2.8748,4)</title></rect><rect x="402" y="199.948" width="6" height="0.0524109" stroke="black" stroke-width="1" fill="blue" opacity="1" tooltip="enable"><title>(2.91836,1)</title></rect><rect x="408" y="199.895" width="6" height="0.104822" stroke="black" stroke-width="1" fill="blue" opacity="1" tooltip="enable"><title>(2.96192,2)</title></rect><rect x="414" y="199.79" width="6" height="0.209644" stroke="black" stroke-width="1" fill="blue" opacity="1" tooltip="enable"><title>(3.00547,4)</title></rect><rect x="420" y="199.738" width="6" height="0.262055" stroke="black" stroke-width="1" fill="blue" opacity="1" tooltip="enable"><title>(3.04903,5)</title></rect><rect x="426" y="199.79" width="6" height="0.209644" stroke="black" stroke-width="1" fill="blue" opacity="1" tooltip="enable"><title>(3.09259,4)</title></rect><rect x="432" y="199.895" width="6" height="0.104822" stroke="black" stroke-width="1" fill="blue" opacity="1" tooltip="enable"><title>(3.13615,2)</title></rect><rect x="438" y="199.895" width="6" height="0.104822" stroke="black" stroke-width="1" fill="blue" opacity="1" tooltip="enable"><title>(3.1797,2)</title></rect><rect x="444" y="199.895" width="6" height="0.104822" stroke="black" stroke-width="1" fill="blue" opacity="1" tooltip="enable"><title>(3.22326,2)</title></rect><rect x="450" y="199.948" width="6" height="0.0524109" stroke="black" stroke-width="1" fill="blue" opacity="1" tooltip="enable"><title>(3.26682,1)</title></rect><rect x="456" y="199.843" width="6" height="0.157233" stroke="black" stroke-width="1" fill="blue" opacity="1" tooltip="enable"><title>(3.31038,3)</title></rect><rect x="462" y="199.948" width="6" height="0.0524109" stroke="black" stroke-width="1" fill="blue" opacity="1" tooltip="enable"><title>(3.35393,1)</title></rect><rect x="468" y="199.843" width="6" height="0.157233" stroke="black" stroke-width="1" fill="blue" opacity="1" tooltip="enable"><title>(3.39749,3)</title></rect><rect x="474" y="199.843" width="6" height="0.157233" stroke="black" stroke-width="1" fill="blue" opacity="1" tooltip="enable"><title>(3.44105,3)</title></rect><rect x="480" y="199.895" width="6" height="0.104822" stroke="black" stroke-width="1" fill="blue" opacity="1" tooltip="enable"><title>(3.48461,2)</title></rect><rect x="486" y="199.843" width="6" height="0.157233" stroke="black" stroke-width="1" fill="blue" opacity="1" tooltip="enable"><title>(3.52816,3)</title></rect><rect x="492" y="199.895" width="6" height="0.104822" stroke="black" stroke-width="1" fill="blue" opacity="1" tooltip="enable"><title>(3.57172,2)</title></rect><rect x="498" y="199.843" width="6" height="0.157233" stroke="black" stroke-width="1" fill="blue" opacity="1" tooltip="enable"><title>(3.61528,3)</title></rect><rect x="504" y="199.948" width="6" height="0.0524109" stroke="black" stroke-width="1" fill="blue" opacity="1" tooltip="enable"><title>(3.65884,1)</title></rect><rect x="510" y="199.895" width="6" height="0.104822" stroke="black" stroke-width="1" fill="blue" opacity="1" tooltip="enable"><title>(3.7024,2)</title></rect><rect x="516" y="200" width="6" height="0" stroke="black" stroke-width="1" fill="blue" opacity="1" tooltip="enable"><title>(3.74595,0)</title></rect><rect x="522" y="199.948" width="6" height="0.0524109" stroke="black" stroke-width="1" fill="blue" opacity="1" tooltip="enable"><title>(3.78951,1)</title></rect><rect x="528" y="200" width="6" height="0" stroke="black" stroke-width="1" fill="blue" opacity="1" tooltip="enable"><title>(3.83307,0)</title></rect><rect x="534" y="200" width="6" height="0" stroke="black" stroke-width="1" fill="blue" opacity="1" tooltip="enable"><title>(3.87663,0)</title></rect><rect x="540" y="200" width="6" height="0" stroke="black" stroke-width="1" fill="blue" opacity="1" tooltip="enable"><title>(3.92018,0)</title></rect><rect x="546" y="199.895" width="6" height="0.104822" stroke="black" stroke-width="1" fill="blue" opacity="1" tooltip="enable"><title>(3.96374,2)</title></rect><rect x="552" y="200" width="6" height="0" stroke="black" stroke-width="1" fill="blue" opacity="1" tooltip="enable"><title>(4.0073,0)</title></rect><rect x="558" y="200" width="6" height="0" stroke="black" stroke-width="1" fill="blue" opacity="1" tooltip="enable"><title>(4.05086,0)</title></rect><rect x="564" y="200" width="6" height="0" stroke="black" stroke-width="1" fill="blue" opacity="1" tooltip="enable"><title>(4.09441,0)</title></rect><rect x="570" y="200" width="6" height="0" stroke="black" stroke-width="1" fill="blue" opacity="1" tooltip="enable"><title>(4.13797,0)</title></rect><rect x="576" y="200" width="6" height="0" stroke="black" stroke-width="1" fill="blue" opacity="1" tooltip="enable"><title>(4.18153,0)</title></rect><rect x="582" y="199.948" width="6" height="0.0524109" stroke="black" stroke-width="1" fill="blue" opacity="1" tooltip="enable"><title>(4.22509,1)</title></rect><rect x="588" y="200" width="6" height="0" stroke="black" stroke-width="1" fill="blue" opacity="1" tooltip="enable"><title>(4.26864,0)</title></rect><rect x="594" y="200" width="6" height="0" stroke="black" stroke-width="1" fill="blue" opacity="1" tooltip="enable"><title>(4.3122,0)</title></rect><text x="30" y="240" font-size="20" fill="black">0</text>
<text x="600" y="240" font-size="20" fill="black">4.35576</text>
<polyline points="0,220,600,220" stroke="black" stroke-width="1" fill="none" opacity="1"/>
<text x="720" y="20" font-size="20" fill="black">3816</text>
<text x="720" y="200" font-size="20" fill="black">0</text>
<polyline points="660,0,660,200" stroke="black" stroke-width="1" fill="none" opacity="1"/>
</svg>