<?xml version="1.0" standalone="yes"?>
<!-- SVG graphic -->
<svg xmlns='http://www.w3.org/2000/svg' xmlns:xlink='http://www.w3.org/1999/xlink'
 version="1.1">
<rect x="0" y="0" width="6" height="200" stroke="black" stroke-width="1" fill="blue" opacity="1" tooltip="enable"><title>(0,9256)</title></rect><rect x="6" y="99.4382" width="6" height="100.562" stroke="black" stroke-width="1" fill="blue" opacity="1" tooltip="enable"><title>(0.0389278,4654)</title></rect><rect x="12" y="119.468" width="6" height="80.5315" stroke="black" stroke-width="1" fill="blue" opacity="1" tooltip="enable"><title>(0.0778557,3727)</title></rect><rect x="18" y="128.025" width="6" height="71.9749" stroke="black" stroke-width="1" fill="blue" opacity="1" tooltip="enable"><title>(0.116784,3331)</title></rect><rect x="24" y="142.178" width="6" height="57.822" stroke="black" stroke-width="1" fill="blue" opacity="1" tooltip="enable"><title>(0.155711,2676)</title></rect><rect x="30" y="148.596" width="6" height="51.4045" stroke="black" stroke-width="1" fill="blue" opacity="1" tooltip="enable"><title>(0.194639,2379)</title></rect><rect x="36" y="156.525" width="6" height="43.4745" stroke="black" stroke-width="1" fill="blue" opacity="1" tooltip="enable"><title>(0.233567,2012)</title></rect><rect x="42" y="162.684" width="6" height="37.3163" stroke="black" stroke-width="1" fill="blue" opacity="1" tooltip="enable"><title>(0.272495,1727)</title></rect><rect x="48" y="168.755" width="6" height="31.2446" stroke="black" stroke-width="1" fill="blue" opacity="1" tooltip="enable"><title>(0.311423,1446)</title></rect><rect x="54" y="174.352" width="6" height="25.6482" stroke="black" stroke-width="1" fill="blue" opacity="1" tooltip="enable"><title>(0.350351,1187)</title></rect><rect x="60" y="177.485" width="6" height="22.5151" stroke="black" stroke-width="1" fill="blue" opacity="1" tooltip="enable"><title>(0.389279,1042)</title></rect><rect x="66" y="181.093" width="6" height="18.9067" stroke="black" stroke-width="1" fill="blue" opacity="1" tooltip="enable"><title>(0.428206,875)</title></rect><rect x="72" y="183.319" width="6" height="16.6811" stroke="black" stroke-width="1" fill="blue" opacity="1" tooltip="enable"><title>(0.467134,772)</title></rect><rect x="78" y="186.711" width="6" height="13.2887" stroke="black" stroke-width="1" fill="blue" opacity="1" tooltip="enable"><title>(0.506062,615)</title></rect><rect x="84" y="188.073" width="6" height="11.9274" stroke="black" stroke-width="1" fill="blue" opacity="1" tooltip="enable"><title>(0.54499,552)</title></rect><rect x="90" y="188.937" width="6" height="11.0631" stroke="black" stroke-width="1" fill="blue" opacity="1" tooltip="enable"><title>(0.583918,512)</title></rect><rect x="96" y="190.795" width="6" height="9.20484" stroke="black" stroke-width="1" fill="blue" opacity="1" tooltip="enable"><title>(0.622846,426)</title></rect><rect x="102" y="192.459" width="6" height="7.54105" stroke="black" stroke-width="1" fill="blue" opacity="1" tooltip="enable"><title>(0.661773,349)</title></rect><rect x="108" y="193.194" width="6" height="6.8064" stroke="black" stroke-width="1" fill="blue" opacity="1" tooltip="enable"><title>(0.700701,315)</title></rect><rect x="114" y="193.755" width="6" height="6.2446" stroke="black" stroke-width="1" fill="blue" opacity="1" tooltip="enable"><title>(0.739629,289)</title></rect><rect x="120" y="194.468" width="6" height="5.53155" stroke="black" stroke-width="1" fill="blue" opacity="1" tooltip="enable"><title>(0.778557,256)</title></rect><rect x="126" y="195.484" width="6" height="4.51599" stroke="black" stroke-width="1" fill="blue" opacity="1" tooltip="enable"><title>(0.817485,209)</title></rect><rect x="132" y="195.376" width="6" height="4.62403" stroke="black" stroke-width="1" fill="blue" opacity="1" tooltip="enable"><title>(0.856413,214)</title></rect><rect x="138" y="196.046" width="6" height="3.95419" stroke="black" stroke-width="1" fill="blue" opacity="1" tooltip="enable"><title>(0.895341,183)</title></rect><rect x="144" y="196.651" width="6" height="3.34918" stroke="black" stroke-width="1" fill="blue" opacity="1" tooltip="enable"><title>(0.934268,155)</title></rect><rect x="150" y="196.629" width="6" height="3.37079" stroke="black" stroke-width="1" fill="blue" opacity="1" tooltip="enable"><title>(0.973196,156)</title></rect><rect x="156" y="197.191" width="6" height="2.80899" stroke="black" stroke-width="1" fill="blue" opacity="1" tooltip="enable"><title>(1.01212,130)</title></rect><rect x="162" y="197.364" width="6" height="2.63613" stroke="black" stroke-width="1" fill="blue" opacity="1" tooltip="enable"><title>(1.05105,122)</title></rect><rect x="168" y="197.774" width="6" height="2.22558" stroke="black" stroke-width="1" fill="blue" opacity="1" tooltip="enable"><title>(1.08998,103)</title></rect><rect x="174" y="197.58" width="6" height="2.42005" stroke="black" stroke-width="1" fill="blue" opacity="1" tooltip="enable"><title>(1.12891,112)</title></rect><rect x="180" y="197.688" width="6" height="2.31201" stroke="black" stroke-width="1" fill="blue" opacity="1" tooltip="enable"><title>(1.16784,107)</title></rect><rect x="186" y="198.293" width="6" height="1.707" stroke="black" stroke-width="1" fill="blue" opacity="1" tooltip="enable"><title>(1.20676,79)</title></rect><rect x="192" y="198.444" width="6" height="1.55575" stroke="black" stroke-width="1" fill="blue" opacity="1" tooltip="enable"><title>(1.24569,72)</title></rect><rect x="198" y="198.315" width="6" height="1.68539" stroke="black" stroke-width="1" fill="blue" opacity="1" tooltip="enable"><title>(1.28462,78)</title></rect><rect x="204" y="198.574" width="6" height="1.4261" stroke="black" stroke-width="1" fill="blue" opacity="1" tooltip="enable"><title>(1.32355,66)</title></rect><rect x="210" y="198.704" width="6" height="1.29646" stroke="black" stroke-width="1" fill="blue" opacity="1" tooltip="enable"><title>(1.36247,60)</title></rect><rect x="216" y="199.222" width="6" height="0.777874" stroke="black" stroke-width="1" fill="blue" opacity="1" tooltip="enable"><title>(1.4014,36)</title></rect><rect x="222" y="199.309" width="6" height="0.691443" stroke="black" stroke-width="1" fill="blue" opacity="1" tooltip="enable"><title>(1.44033,32)</title></rect><rect x="228" y="199.201" width="6" height="0.799481" stroke="black" stroke-width="1" fill="blue" opacity="1" tooltip="enable"><title>(1.47926,37)</title></rect><rect x="234" y="198.984" width="6" height="1.01556" stroke="black" stroke-width="1" fill="blue" opacity="1" tooltip="enable"><title>(1.51819,47)</title></rect><rect x="240" y="199.352" width="6" height="0.648228" stroke="black" stroke-width="1" fill="blue" opacity="1" tooltip="enable"><title>(1.55711,30)</title></rect><rect x="246" y="199.438" width="6" height="0.561798" stroke="black" stroke-width="1" fill="blue" opacity="1" tooltip="enable"><title>(1.59604,26)</title></rect><rect x="252" y="199.179" width="6" height="0.821089" stroke="black" stroke-width="1" fill="blue" opacity="1" tooltip="enable"><title>(1.63497,38)</title></rect><rect x="258" y="199.417" width="6" height="0.583405" stroke="black" stroke-width="1" fill="blue" opacity="1" tooltip="enable"><title>(1.6739,27)</title></rect><rect x="264" y="199.265" width="6" height="0.734659" stroke="black" stroke-width="1" fill="blue" opacity="1" tooltip="enable"><title>(1.71283,34)</title></rect><rect x="270" y="199.352" width="6" height="0.648228" stroke="black" stroke-width="1" fill="blue" opacity="1" tooltip="enable"><title>(1.75175,30)</title></rect><rect x="276" y="199.481" width="6" height="0.518583" stroke="black" stroke-width="1" fill="blue" opacity="1" tooltip="enable"><title>(1.79068,24)</title></rect><rect x="282" y="199.633" width="6" height="0.367329" stroke="black" stroke-width="1" fill="blue" opacity="1" tooltip="enable"><title>(1.82961,17)</title></rect><rect x="288" y="199.589" width="6" height="0.410545" stroke="black" stroke-width="1" fill="blue" opacity="1" tooltip="enable"><title>(1.86854,19)</title></rect><rect x="294" y="199.309" width="6" height="0.691443" stroke="black" stroke-width="1" fill="blue" opacity="1" tooltip="enable"><title>(1.90746,32)</title></rect><rect x="300" y="199.676" width="6" height="0.324114" stroke="black" stroke-width="1" fill="blue" opacity="1" tooltip="enable"><title>(1.94639,15)</title></rect><rect x="306" y="199.762" width="6" height="0.237684" stroke="black" stroke-width="1" fill="blue" opacity="1" tooltip="enable"><title>(1.98532,11)</title></rect><rect x="312" y="199.784" width="6" height="0.216076" stroke="black" stroke-width="1" fill="blue" opacity="1" tooltip="enable"><title>(2.02425,10)</title></rect><rect x="318" y="199.611" width="6" height="0.388937" stroke="black" stroke-width="1" fill="blue" opacity="1" tooltip="enable"><title>(2.06318,18)</title></rect><rect x="324" y="199.654" width="6" height="0.345722" stroke="black" stroke-width="1" fill="blue" opacity="1" tooltip="enable"><title>(2.1021,16)</title></rect><rect x="330" y="199.806" width="6" height="0.194468" stroke="black" stroke-width="1" fill="blue" opacity="1" tooltip="enable"><title>(2.14103,9)</title></rect><rect x="336" y="199.762" width="6" height="0.237684" stroke="black" stroke-width="1" fill="blue" opacity="1" tooltip="enable"><title>(2.17996,11)</title></rect><rect x="342" y="199.654" width="6" height="0.345722" stroke="black" stroke-width="1" fill="blue" opacity="1" tooltip="enable"><title>(2.21889,16)</title></rect><rect x="348" y="199.719" width="6" height="0.280899" stroke="black" stroke-width="1" fill="blue" opacity="1" tooltip="enable"><title>(2.25782,13)</title></rect><rect x="354" y="199.806" width="6" height="0.194468" stroke="black" stroke-width="1" fill="blue" opacity="1" tooltip="enable"><title>(2.29674,9)</title></rect><rect x="360" y="199.849" width="6" height="0.151253" stroke="black" stroke-width="1" fill="blue" opacity="1" tooltip="enable"><title>(2.33567,7)</title></rect><rect x="366" y="199.892" width="6" height="0.108038" stroke="black" stroke-width="1" fill="blue" opacity="1" tooltip="enable"><title>(2.3746,5)</title></rect><rect x="372" y="199.784" width="6" height="0.216076" stroke="black" stroke-width="1" fill="blue" opacity="1" tooltip="enable"><title>(2.41353,10)</title></rect><rect x="378" y="199.849" width="6" height="0.151253" stroke="black" stroke-width="1" fill="blue" opacity="1" tooltip="enable"><title>(2.45245,7)</title></rect><rect x="384" y="199.784" width="6" height="0.216076" stroke="black" stroke-width="1" fill="blue" opacity="1" tooltip="enable"><title>(2.49138,10)</title></rect><rect x="390" y="199.849" width="6" height="0.151253" stroke="black" stroke-width="1" fill="blue" opacity="1" tooltip="enable"><title>(2.53031,7)</title></rect><rect x="396" y="199.806" width="6" height="0.194468" stroke="black" stroke-width="1" fill="blue" opacity="1" tooltip="enable"><title>(2.56924,9)</title></rect><rect x="402" y="199.892" width="6" height="0.108038" stroke="black" stroke-width="1" fill="blue" opacity="1" tooltip="enable"><title>(2.60817,5)</title></rect><rect x="408" y="199.762" width="6" height="0.237684" stroke="black" stroke-width="1" fill="blue" opacity="1" tooltip="enable"><title>(2.64709,11)</title></rect><rect x="414" y="199.957" width="6" height="0.0432152" stroke="black" stroke-width="1" fill="blue" opacity="1" tooltip="enable"><title>(2.68602,2)</title></rect><rect x="420" y="199.87" width="6" height="0.129646" stroke="black" stroke-width="1" fill="blue" opacity="1" tooltip="enable"><title>(2.72495,6)</title></rect><rect x="426" y="199.892" width="6" height="0.108038" stroke="black" stroke-width="1" fill="blue" opacity="1" tooltip="enable"><title>(2.76388,5)</title></rect><rect x="432" y="199.914" width="6" height="0.0864304" stroke="black" stroke-width="1" fill="blue" opacity="1" tooltip="enable"><title>(2.80281,4)</title></rect><rect x="438" y="199.87" width="6" height="0.129646" stroke="black" stroke-width="1" fill="blue" opacity="1" tooltip="enable"><title>(2.84173,6)</title></rect><rect x="444" y="199.892" width="6" height="0.108038" stroke="black" stroke-width="1" fill="blue" opacity="1" tooltip="enable"><title>(2.88066,5)</title></rect><rect x="450" y="199.935" width="6" height="0.0648228" stroke="black" stroke-width="1" fill="blue" opacity="1" tooltip="enable"><title>(2.91959,3)</title></rect><rect x="456" y="199.957" width="6" height="0.0432152" stroke="black" stroke-width="1" fill="blue" opacity="1" tooltip="enable"><title>(2.95852,2)</title></rect><rect x="462" y="199.935" width="6" height="0.0648228" stroke="black" stroke-width="1" fill="blue" opacity="1" tooltip="enable"><title>(2.99744,3)</title></rect><rect x="468" y="199.957" width="6" height="0.0432152" stroke="black" stroke-width="1" fill="blue" opacity="1" tooltip="enable"><title>(3.03637,2)</title></rect><rect x="474" y="199.957" width="6" height="0.0432152" stroke="black" stroke-width="1" fill="blue" opacity="1" tooltip="enable"><title>(3.0753,2)</title></rect><rect x="480" y="199.978" width="6" height="0.0216076" stroke="black" stroke-width="1" fill="blue" opacity="1" tooltip="enable"><title>(3.11423,1)</title></rect><rect x="486" y="199.978" width="6" height="0.0216076" stroke="black" stroke-width="1" fill="blue" opacity="1" tooltip="enable"><title>(3.15316,1)</title></rect><rect x="492" y="199.914" width="6" height="0.0864304" stroke="black" stroke-width="1" fill="blue" opacity="1" tooltip="enable"><title>(3.19208,4)</title></rect><rect x="498" y="199.935" width="6" height="0.0648228" stroke="black" stroke-width="1" fill="blue" opacity="1" tooltip="enable"><title>(3.23101,3)</title></rect><rect x="504" y="199.978" width="6" height="0.0216076" stroke="black" stroke-width="1" fill="blue" opacity="1" tooltip="enable"><title>(3.26994,1)</title></rect><rect x="510" y="199.978" width="6" height="0.0216076" stroke="black" stroke-width="1" fill="blue" opacity="1" tooltip="enable"><title>(3.30887,1)</title></rect><rect x="516" y="199.957" width="6" height="0.0432152" stroke="black" stroke-width="1" fill="blue" opacity="1" tooltip="enable"><title>(3.3478,2)</title></rect><rect x="522" y="199.827" width="6" height="0.172861" stroke="black" stroke-width="1" fill="blue" opacity="1" tooltip="enable"><title>(3.38672,8)</title></rect><rect x="528" y="199.914" width="6" height="0.0864304" stroke="black" stroke-width="1" fill="blue" opacity="1" tooltip="enable"><title>(3.42565,4)</title></rect><rect x="534" y="199.957" width="6" height="0.0432152" stroke="black" stroke-width="1" fill="blue" opacity="1" tooltip="enable"><title>(3.46458,2)</title></rect><rect x="540" y="200" width="6" height="0" stroke="black" stroke-width="1" fill="blue" opacity="1" tooltip="enable"><title>(3.50351,0)</title></rect><rect x="546" y="200" width="6" height="0" stroke="black" stroke-width="1" fill="blue" opacity="1" tooltip="enable"><title>(3.54243,0)</title></rect><rect x="552" y="199.957" width="6" height="0.0432152" stroke="black" stroke-width="1" fill="blue" opacity="1" tooltip="enable"><title>(3.58136,2)</title></rect><rect x="558" y="200" width="6" height="0" stroke="black" stroke-width="1" fill="blue" opacity="1" tooltip="enable"><title>(3.62029,0)</title></rect><rect x="564" y="200" width="6" height="0" stroke="black" stroke-width="1" fill="blue" opacity="1" tooltip="enable"><title>(3.65922,0)</title></rect><rect x="570" y="199.957" width="6" height="0.0432152" stroke="black" stroke-width="1" fill="blue" opacity="1" tooltip="enable"><title>(3.69815,2)</title></rect><rect x="576" y="199.978" width="6" height="0.0216076" stroke="black" stroke-width="1" fill="blue" opacity="1" tooltip="enable"><title>(3.73707,1)</title></rect><rect x="582" y="199.957" width="6" height="0.0432152" stroke="black" stroke-width="1" fill="blue" opacity="1" tooltip="enable"><title>(3.776,2)</title></rect><rect x="588" y="199.978" width="6" height="0.0216076" stroke="black" stroke-width="1" fill="blue" opacity="1" tooltip="enable"><title>(3.81493,1)</title></rect><rect x="594" y="200" width="6" height="0" stroke="black" stroke-width="1" fill="blue" opacity="1" tooltip="enable"><title>(3.85386,0)</title></rect><text x="30" y="240" font-size="20" fill="black">0</text>
<text x="600" y="240" font-size="20" fill="black">3.89278</text>
<polyline points="0,220,600,220" stroke="black" stroke-width="1" fill="none" opacity="1"/>
<text x="720" y="20" font-size="20" fill="black">9256</text>
<text x="720" y="200" font-size="20" fill="black">0</text>
<polyline points="660,0,660,200" stroke="black" stroke-width="1" fill="none" opacity="1"/>
</svg>