<?xml version="1.0" standalone="yes"?>
<!-- SVG graphic -->
<svg xmlns='http://www.w3.org/2000/svg' xmlns:xlink='http://www.w3.org/1999/xlink'
 version="1.1">
<rect x="0" y="0" width="6" height="200" stroke="black" stroke-width="1" fill="blue" opacity="1" tooltip="enable"><title>(0,9221)</title></rect><rect x="6" y="98.2323" width="6" height="101.768" stroke="black" stroke-width="1" fill="blue" opacity="1" tooltip="enable"><title>(0.0391069,4692)</title></rect><rect x="12" y="118.577" width="6" height="81.4228" stroke="black" stroke-width="1" fill="blue" opacity="1" tooltip="enable"><title>(0.0782138,3754)</title></rect><rect x="18" y="128.815" width="6" height="71.1853" stroke="black" stroke-width="1" fill="blue" opacity="1" tooltip="enable"><title>(0.117321,3282)</title></rect><rect x="24" y="140.44" width="6" height="59.5597" stroke="black" stroke-width="1" fill="blue" opacity="1" tooltip="enable"><title>(0.156428,2746)</title></rect><rect x="30" y="148.292" width="6" height="51.7081" stroke="black" stroke-width="1" fill="blue" opacity="1" tooltip="enable"><title>(0.195535,2384)</title></rect><rect x="36" y="156.079" width="6" height="43.9215" stroke="black" stroke-width="1" fill="blue" opacity="1" tooltip="enable"><title>(0.234642,2025)</title></rect><rect x="42" y="161.783" width="6" height="38.2171" stroke="black" stroke-width="1" fill="blue" opacity="1" tooltip="enable"><title>(0.273748,1762)</title></rect><rect x="48" y="169.049" width="6" height="30.9511" stroke="black" stroke-width="1" fill="blue" opacity="1" tooltip="enable"><title>(0.312855,1427)</title></rect><rect x="54" y="173.669" width="6" height="26.3312" stroke="black" stroke-width="1" fill="blue" opacity="1" tooltip="enable"><title>(0.351962,1214)</title></rect><rect x="60" y="177.92" width="6" height="22.08" stroke="black" stroke-width="1" fill="blue" opacity="1" tooltip="enable"><title>(0.391069,1018)</title></rect><rect x="66" y="180.393" width="6" height="19.6074" stroke="black" stroke-width="1" fill="blue" opacity="1" tooltip="enable"><title>(0.430176,904)</title></rect><rect x="72" y="183.407" width="6" height="16.5926" stroke="black" stroke-width="1" fill="blue" opacity="1" tooltip="enable"><title>(0.469283,765)</title></rect><rect x="78" y="186.813" width="6" height="13.1873" stroke="black" stroke-width="1" fill="blue" opacity="1" tooltip="enable"><title>(0.50839,608)</title></rect><rect x="84" y="187.572" width="6" height="12.4282" stroke="black" stroke-width="1" fill="blue" opacity="1" tooltip="enable"><title>(0.547497,573)</title></rect><rect x="90" y="188.635" width="6" height="11.3654" stroke="black" stroke-width="1" fill="blue" opacity="1" tooltip="enable"><title>(0.586604,524)</title></rect><rect x="96" y="191.454" width="6" height="8.54571" stroke="black" stroke-width="1" fill="blue" opacity="1" tooltip="enable"><title>(0.625711,394)</title></rect><rect x="102" y="192.387" width="6" height="7.61306" stroke="black" stroke-width="1" fill="blue" opacity="1" tooltip="enable"><title>(0.664818,351)</title></rect><rect x="108" y="192.886" width="6" height="7.1142" stroke="black" stroke-width="1" fill="blue" opacity="1" tooltip="enable"><title>(0.703925,328)</title></rect><rect x="114" y="193.905" width="6" height="6.09478" stroke="black" stroke-width="1" fill="blue" opacity="1" tooltip="enable"><title>(0.743032,281)</title></rect><rect x="120" y="194.556" width="6" height="5.4441" stroke="black" stroke-width="1" fill="blue" opacity="1" tooltip="enable"><title>(0.782138,251)</title></rect><rect x="126" y="195.423" width="6" height="4.57651" stroke="black" stroke-width="1" fill="blue" opacity="1" tooltip="enable"><title>(0.821245,211)</title></rect><rect x="132" y="195.38" width="6" height="4.61989" stroke="black" stroke-width="1" fill="blue" opacity="1" tooltip="enable"><title>(0.860352,213)</title></rect><rect x="138" y="196.031" width="6" height="3.9692" stroke="black" stroke-width="1" fill="blue" opacity="1" tooltip="enable"><title>(0.899459,183)</title></rect><rect x="144" y="196.486" width="6" height="3.51372" stroke="black" stroke-width="1" fill="blue" opacity="1" tooltip="enable"><title>(0.938566,162)</title></rect><rect x="150" y="196.638" width="6" height="3.36189" stroke="black" stroke-width="1" fill="blue" opacity="1" tooltip="enable"><title>(0.977673,155)</title></rect><rect x="156" y="197.115" width="6" height="2.88472" stroke="black" stroke-width="1" fill="blue" opacity="1" tooltip="enable"><title>(1.01678,133)</title></rect><rect x="162" y="197.419" width="6" height="2.58106" stroke="black" stroke-width="1" fill="blue" opacity="1" tooltip="enable"><title>(1.05589,119)</title></rect><rect x="168" y="197.636" width="6" height="2.36417" stroke="black" stroke-width="1" fill="blue" opacity="1" tooltip="enable"><title>(1.09499,109)</title></rect><rect x="174" y="197.831" width="6" height="2.16896" stroke="black" stroke-width="1" fill="blue" opacity="1" tooltip="enable"><title>(1.1341,100)</title></rect><rect x="180" y="197.723" width="6" height="2.27741" stroke="black" stroke-width="1" fill="blue" opacity="1" tooltip="enable"><title>(1.17321,105)</title></rect><rect x="186" y="198.048" width="6" height="1.95207" stroke="black" stroke-width="1" fill="blue" opacity="1" tooltip="enable"><title>(1.21231,90)</title></rect><rect x="192" y="198.807" width="6" height="1.19293" stroke="black" stroke-width="1" fill="blue" opacity="1" tooltip="enable"><title>(1.25142,55)</title></rect><rect x="198" y="198.308" width="6" height="1.69179" stroke="black" stroke-width="1" fill="blue" opacity="1" tooltip="enable"><title>(1.29053,78)</title></rect><rect x="204" y="198.395" width="6" height="1.60503" stroke="black" stroke-width="1" fill="blue" opacity="1" tooltip="enable"><title>(1.32964,74)</title></rect><rect x="210" y="198.634" width="6" height="1.36645" stroke="black" stroke-width="1" fill="blue" opacity="1" tooltip="enable"><title>(1.36874,63)</title></rect><rect x="216" y="199.219" width="6" height="0.780826" stroke="black" stroke-width="1" fill="blue" opacity="1" tooltip="enable"><title>(1.40785,36)</title></rect><rect x="222" y="199.132" width="6" height="0.867585" stroke="black" stroke-width="1" fill="blue" opacity="1" tooltip="enable"><title>(1.44696,40)</title></rect><rect x="228" y="199.306" width="6" height="0.694068" stroke="black" stroke-width="1" fill="blue" opacity="1" tooltip="enable"><title>(1.48606,32)</title></rect><rect x="234" y="199.197" width="6" height="0.802516" stroke="black" stroke-width="1" fill="blue" opacity="1" tooltip="enable"><title>(1.52517,37)</title></rect><rect x="240" y="199.219" width="6" height="0.780826" stroke="black" stroke-width="1" fill="blue" opacity="1" tooltip="enable"><title>(1.56428,36)</title></rect><rect x="246" y="199.306" width="6" height="0.694068" stroke="black" stroke-width="1" fill="blue" opacity="1" tooltip="enable"><title>(1.60338,32)</title></rect><rect x="252" y="199.284" width="6" height="0.715757" stroke="black" stroke-width="1" fill="blue" opacity="1" tooltip="enable"><title>(1.64249,33)</title></rect><rect x="258" y="199.414" width="6" height="0.58562" stroke="black" stroke-width="1" fill="blue" opacity="1" tooltip="enable"><title>(1.6816,27)</title></rect><rect x="264" y="199.371" width="6" height="0.628999" stroke="black" stroke-width="1" fill="blue" opacity="1" tooltip="enable"><title>(1.7207,29)</title></rect><rect x="270" y="199.284" width="6" height="0.715757" stroke="black" stroke-width="1" fill="blue" opacity="1" tooltip="enable"><title>(1.75981,33)</title></rect><rect x="276" y="199.436" width="6" height="0.56393" stroke="black" stroke-width="1" fill="blue" opacity="1" tooltip="enable"><title>(1.79892,26)</title></rect><rect x="282" y="199.696" width="6" height="0.303655" stroke="black" stroke-width="1" fill="blue" opacity="1" tooltip="enable"><title>(1.83803,14)</title></rect><rect x="288" y="199.501" width="6" height="0.498861" stroke="black" stroke-width="1" fill="blue" opacity="1" tooltip="enable"><title>(1.87713,23)</title></rect><rect x="294" y="199.479" width="6" height="0.520551" stroke="black" stroke-width="1" fill="blue" opacity="1" tooltip="enable"><title>(1.91624,24)</title></rect><rect x="300" y="199.61" width="6" height="0.390413" stroke="black" stroke-width="1" fill="blue" opacity="1" tooltip="enable"><title>(1.95535,18)</title></rect><rect x="306" y="199.783" width="6" height="0.216896" stroke="black" stroke-width="1" fill="blue" opacity="1" tooltip="enable"><title>(1.99445,10)</title></rect><rect x="312" y="199.783" width="6" height="0.216896" stroke="black" stroke-width="1" fill="blue" opacity="1" tooltip="enable"><title>(2.03356,10)</title></rect><rect x="318" y="199.653" width="6" height="0.347034" stroke="black" stroke-width="1" fill="blue" opacity="1" tooltip="enable"><title>(2.07267,16)</title></rect><rect x="324" y="199.653" width="6" height="0.347034" stroke="black" stroke-width="1" fill="blue" opacity="1" tooltip="enable"><title>(2.11177,16)</title></rect><rect x="330" y="199.783" width="6" height="0.216896" stroke="black" stroke-width="1" fill="blue" opacity="1" tooltip="enable"><title>(2.15088,10)</title></rect><rect x="336" y="199.74" width="6" height="0.260275" stroke="black" stroke-width="1" fill="blue" opacity="1" tooltip="enable"><title>(2.18999,12)</title></rect><rect x="342" y="199.696" width="6" height="0.303655" stroke="black" stroke-width="1" fill="blue" opacity="1" tooltip="enable"><title>(2.22909,14)</title></rect><rect x="348" y="199.653" width="6" height="0.347034" stroke="black" stroke-width="1" fill="blue" opacity="1" tooltip="enable"><title>(2.2682,16)</title></rect><rect x="354" y="199.848" width="6" height="0.151827" stroke="black" stroke-width="1" fill="blue" opacity="1" tooltip="enable"><title>(2.30731,7)</title></rect><rect x="360" y="199.805" width="6" height="0.195207" stroke="black" stroke-width="1" fill="blue" opacity="1" tooltip="enable"><title>(2.34642,9)</title></rect><rect x="366" y="199.87" width="6" height="0.130138" stroke="black" stroke-width="1" fill="blue" opacity="1" tooltip="enable"><title>(2.38552,6)</title></rect><rect x="372" y="199.805" width="6" height="0.195207" stroke="black" stroke-width="1" fill="blue" opacity="1" tooltip="enable"><title>(2.42463,9)</title></rect><rect x="378" y="199.848" width="6" height="0.151827" stroke="black" stroke-width="1" fill="blue" opacity="1" tooltip="enable"><title>(2.46374,7)</title></rect><rect x="384" y="199.74" width="6" height="0.260275" stroke="black" stroke-width="1" fill="blue" opacity="1" tooltip="enable"><title>(2.50284,12)</title></rect><rect x="390" y="199.783" width="6" height="0.216896" stroke="black" stroke-width="1" fill="blue" opacity="1" tooltip="enable"><title>(2.54195,10)</title></rect><rect x="396" y="199.848" width="6" height="0.151827" stroke="black" stroke-width="1" fill="blue" opacity="1" tooltip="enable"><title>(2.58106,7)</title></rect><rect x="402" y="199.783" width="6" height="0.216896" stroke="black" stroke-width="1" fill="blue" opacity="1" tooltip="enable"><title>(2.62016,10)</title></rect><rect x="408" y="199.87" width="6" height="0.130138" stroke="black" stroke-width="1" fill="blue" opacity="1" tooltip="enable"><title>(2.65927,6)</title></rect><rect x="414" y="199.87" width="6" height="0.130138" stroke="black" stroke-width="1" fill="blue" opacity="1" tooltip="enable"><title>(2.69838,6)</title></rect><rect x="420" y="199.935" width="6" height="0.0650689" stroke="black" stroke-width="1" fill="blue" opacity="1" tooltip="enable"><title>(2.73748,3)</title></rect><rect x="426" y="199.87" width="6" height="0.130138" stroke="black" stroke-width="1" fill="blue" opacity="1" tooltip="enable"><title>(2.77659,6)</title></rect><rect x="432" y="199.892" width="6" height="0.108448" stroke="black" stroke-width="1" fill="blue" opacity="1" tooltip="enable"><title>(2.8157,5)</title></rect><rect x="438" y="199.848" width="6" height="0.151827" stroke="black" stroke-width="1" fill="blue" opacity="1" tooltip="enable"><title>(2.85481,7)</title></rect><rect x="444" y="199.913" width="6" height="0.0867585" stroke="black" stroke-width="1" fill="blue" opacity="1" tooltip="enable"><title>(2.89391,4)</title></rect><rect x="450" y="199.935" width="6" height="0.0650689" stroke="black" stroke-width="1" fill="blue" opacity="1" tooltip="enable"><title>(2.93302,3)</title></rect><rect x="456" y="199.978" width="6" height="0.0216896" stroke="black" stroke-width="1" fill="blue" opacity="1" tooltip="enable"><title>(2.97213,1)</title></rect><rect x="462" y="199.913" width="6" height="0.0867585" stroke="black" stroke-width="1" fill="blue" opacity="1" tooltip="enable"><title>(3.01123,4)</title></rect><rect x="468" y="200" width="6" height="0" stroke="black" stroke-width="1" fill="blue" opacity="1" tooltip="enable"><title>(3.05034,0)</title></rect><rect x="474" y="199.913" width="6" height="0.0867585" stroke="black" stroke-width="1" fill="blue" opacity="1" tooltip="enable"><title>(3.08945,4)</title></rect><rect x="480" y="199.978" width="6" height="0.0216896" stroke="black" stroke-width="1" fill="blue" opacity="1" tooltip="enable"><title>(3.12855,1)</title></rect><rect x="486" y="200" width="6" height="0" stroke="black" stroke-width="1" fill="blue" opacity="1" tooltip="enable"><title>(3.16766,0)</title></rect><rect x="492" y="199.892" width="6" height="0.108448" stroke="black" stroke-width="1" fill="blue" opacity="1" tooltip="enable"><title>(3.20677,5)</title></rect><rect x="498" y="199.957" width="6" height="0.0433792" stroke="black" stroke-width="1" fill="blue" opacity="1" tooltip="enable"><title>(3.24587,2)</title></rect><rect x="504" y="199.957" width="6" height="0.0433792" stroke="black" stroke-width="1" fill="blue" opacity="1" tooltip="enable"><title>(3.28498,2)</title></rect><rect x="510" y="199.957" width="6" height="0.0433792" stroke="black" stroke-width="1" fill="blue" opacity="1" tooltip="enable"><title>(3.32409,2)</title></rect><rect x="516" y="199.935" width="6" height="0.0650689" stroke="black" stroke-width="1" fill="blue" opacity="1" tooltip="enable"><title>(3.3632,3)</title></rect><rect x="522" y="199.848" width="6" height="0.151827" stroke="black" stroke-width="1" fill="blue" opacity="1" tooltip="enable"><title>(3.4023,7)</title></rect><rect x="528" y="199.957" width="6" height="0.0433792" stroke="black" stroke-width="1" fill="blue" opacity="1" tooltip="enable"><title>(3.44141,2)</title></rect><rect x="534" y="199.957" width="6" height="0.0433792" stroke="black" stroke-width="1" fill="blue" opacity="1" tooltip="enable"><title>(3.48052,2)</title></rect><rect x="540" y="200" width="6" height="0" stroke="black" stroke-width="1" fill="blue" opacity="1" tooltip="enable"><title>(3.51962,0)</title></rect><rect x="546" y="199.978" width="6" height="0.0216896" stroke="black" stroke-width="1" fill="blue" opacity="1" tooltip="enable"><title>(3.55873,1)</title></rect><rect x="552" y="199.957" width="6" height="0.0433792" stroke="black" stroke-width="1" fill="blue" opacity="1" tooltip="enable"><title>(3.59784,2)</title></rect><rect x="558" y="200" width="6" height="0" stroke="black" stroke-width="1" fill="blue" opacity="1" tooltip="enable"><title>(3.63694,0)</title></rect><rect x="564" y="199.978" width="6" height="0.0216896" stroke="black" stroke-width="1" fill="blue" opacity="1" tooltip="enable"><title>(3.67605,1)</title></rect><rect x="570" y="199.957" width="6" height="0.0433792" stroke="black" stroke-width="1" fill="blue" opacity="1" tooltip="enable"><title>(3.71516,2)</title></rect><rect x="576" y="199.957" width="6" height="0.0433792" stroke="black" stroke-width="1" fill="blue" opacity="1" tooltip="enable"><title>(3.75426,2)</title></rect><rect x="582" y="199.978" width="6" height="0.0216896" stroke="black" stroke-width="1" fill="blue" opacity="1" tooltip="enable"><title>(3.79337,1)</title></rect><rect x="588" y="199.957" width="6" height="0.0433792" stroke="black" stroke-width="1" fill="blue" opacity="1" tooltip="enable"><title>(3.83248,2)</title></rect><rect x="594" y="199.957" width="6" height="0.0433792" stroke="black" stroke-width="1" fill="blue" opacity="1" tooltip="enable"><title>(3.87159,2)</title></rect><text x="30" y="240" font-size="20" fill="black">0</text>
<text x="600" y="240" font-size="20" fill="black">3.91069</text>
<polyline points="0,220,600,220" stroke="black" stroke-width="1" fill="none" opacity="1"/>
<text x="720" y="20" font-size="20" fill="black">9221</text>
<text x="720" y="200" font-size="20" fill="black">0</text>
<polyline points="660,0,660,200" stroke="black" stroke-width="1" fill="none" opacity="1"/>
</svg>