<?xml version="1.0" encoding="UTF-8" standalone="no"?>
<!DOCTYPE svg PUBLIC "-//W3C//DTD SVG 1.1//EN"
 "http://www.w3.org/Graphics/SVG/1.1/DTD/svg11.dtd">
<!-- Generated by graphviz version 2.43.0 (0)
 -->
<!-- Title: 1 Pages: 1 -->
<svg width="257pt" height="326pt"
 viewBox="0.00 0.00 256.51 326.40" xmlns="http://www.w3.org/2000/svg" xmlns:xlink="http://www.w3.org/1999/xlink">
<g id="graph0" class="graph" transform="scale(1 1) rotate(0) translate(4 322.4)">
<title>1</title>
<polygon fill="white" stroke="transparent" points="-4,4 -4,-322.4 252.51,-322.4 252.51,4 -4,4"/>
<!-- n9 -->
<g id="node1" class="node">
<title>n9</title>
<ellipse fill="none" stroke="black" cx="60.06" cy="-295.65" rx="23" ry="23"/>
<text text-anchor="middle" x="60.06" y="-291.95" font-family="Times,serif" font-size="14.00">n9</text>
</g>
<!-- n10 -->
<g id="node2" class="node">
<title>n10</title>
<ellipse fill="none" stroke="black" cx="205.83" cy="-287.8" rx="28.7" ry="28.7"/>
<text text-anchor="middle" x="205.83" y="-284.1" font-family="Times,serif" font-size="14.00">n10</text>
</g>
<!-- n9&#45;&#45;n10 -->
<g id="edge1" class="edge">
<title>n9&#45;&#45;n10</title>
<path fill="none" stroke="black" d="M82.83,-294.42C108.3,-293.05 149.58,-290.83 177.21,-289.34"/>
</g>
<!-- n8 -->
<g id="node3" class="node">
<title>n8</title>
<ellipse fill="none" stroke="black" cx="153.17" cy="-119.33" rx="23" ry="23"/>
<text text-anchor="middle" x="153.17" y="-115.63" font-family="Times,serif" font-size="14.00">n8</text>
</g>
<!-- n8&#45;&#45;n9 -->
<g id="edge3" class="edge">
<title>n8&#45;&#45;n9</title>
<path fill="none" stroke="black" d="M142.49,-139.56C124.58,-173.48 88.68,-241.44 70.76,-275.39"/>
</g>
<!-- n8&#45;&#45;n10 -->
<g id="edge2" class="edge">
<title>n8&#45;&#45;n10</title>
<path fill="none" stroke="black" d="M160.06,-141.35C169.62,-171.95 186.91,-227.28 197.29,-260.47"/>
</g>
<!-- n7 -->
<g id="node4" class="node">
<title>n7</title>
<ellipse fill="none" stroke="black" cx="101.71" cy="-225.7" rx="23" ry="23"/>
<text text-anchor="middle" x="101.71" y="-222" font-family="Times,serif" font-size="14.00">n7</text>
</g>
<!-- n7&#45;&#45;n9 -->
<g id="edge5" class="edge">
<title>n7&#45;&#45;n9</title>
<path fill="none" stroke="black" d="M89.88,-245.56C84.21,-255.09 77.43,-266.48 71.77,-275.98"/>
</g>
<!-- n7&#45;&#45;n10 -->
<g id="edge4" class="edge">
<title>n7&#45;&#45;n10</title>
<path fill="none" stroke="black" d="M121.29,-237.38C138.26,-247.5 162.89,-262.19 181.19,-273.11"/>
</g>
<!-- n7&#45;&#45;n8 -->
<g id="edge6" class="edge">
<title>n7&#45;&#45;n8</title>
<path fill="none" stroke="black" d="M111.63,-205.19C120.68,-186.48 134,-158.95 143.1,-140.14"/>
</g>
<!-- n6 -->
<g id="node5" class="node">
<title>n6</title>
<ellipse fill="none" stroke="black" cx="172.26" cy="-210.9" rx="23" ry="23"/>
<text text-anchor="middle" x="172.26" y="-207.2" font-family="Times,serif" font-size="14.00">n6</text>
</g>
<!-- n6&#45;&#45;n9 -->
<g id="edge8" class="edge">
<title>n6&#45;&#45;n9</title>
<path fill="none" stroke="black" d="M153.99,-224.71C133.12,-240.47 99.19,-266.09 78.33,-281.85"/>
</g>
<!-- n6&#45;&#45;n10 -->
<g id="edge7" class="edge">
<title>n6&#45;&#45;n10</title>
<path fill="none" stroke="black" d="M181.44,-231.92C185.44,-241.08 190.17,-251.91 194.39,-261.59"/>
</g>
<!-- n6&#45;&#45;n8 -->
<g id="edge9" class="edge">
<title>n6&#45;&#45;n8</title>
<path fill="none" stroke="black" d="M167.55,-188.27C164.59,-174.07 160.79,-155.85 157.84,-141.7"/>
</g>
<!-- n6&#45;&#45;n7 -->
<g id="edge10" class="edge">
<title>n6&#45;&#45;n7</title>
<path fill="none" stroke="black" d="M149.94,-215.58C141.7,-217.31 132.37,-219.27 124.13,-221"/>
</g>
<!-- n5 -->
<g id="node6" class="node">
<title>n5</title>
<ellipse fill="none" stroke="black" cx="31.13" cy="-190.17" rx="23" ry="23"/>
<text text-anchor="middle" x="31.13" y="-186.47" font-family="Times,serif" font-size="14.00">n5</text>
</g>
<!-- n5&#45;&#45;n9 -->
<g id="edge12" class="edge">
<title>n5&#45;&#45;n9</title>
<path fill="none" stroke="black" d="M37.19,-212.28C42.13,-230.28 49.06,-255.57 54,-273.57"/>
</g>
<!-- n5&#45;&#45;n10 -->
<g id="edge11" class="edge">
<title>n5&#45;&#45;n10</title>
<path fill="none" stroke="black" d="M51.17,-201.37C83.16,-219.25 145.74,-254.22 180.69,-273.75"/>
</g>
<!-- n5&#45;&#45;n8 -->
<g id="edge13" class="edge">
<title>n5&#45;&#45;n8</title>
<path fill="none" stroke="black" d="M51.01,-178.63C73.7,-165.46 110.61,-144.03 133.3,-130.86"/>
</g>
<!-- n5&#45;&#45;n7 -->
<g id="edge14" class="edge">
<title>n5&#45;&#45;n7</title>
<path fill="none" stroke="black" d="M51.54,-200.45C60.82,-205.12 71.79,-210.64 81.09,-215.32"/>
</g>
<!-- n5&#45;&#45;n6 -->
<g id="edge15" class="edge">
<title>n5&#45;&#45;n6</title>
<path fill="none" stroke="black" d="M53.8,-193.5C80.14,-197.37 123.33,-203.71 149.64,-207.58"/>
</g>
<!-- n4 -->
<g id="node7" class="node">
<title>n4</title>
<ellipse fill="none" stroke="black" cx="82.55" cy="-133.49" rx="23" ry="23"/>
<text text-anchor="middle" x="82.55" y="-129.79" font-family="Times,serif" font-size="14.00">n4</text>
</g>
<!-- n4&#45;&#45;n9 -->
<g id="edge17" class="edge">
<title>n4&#45;&#45;n9</title>
<path fill="none" stroke="black" d="M79.42,-156.04C75.14,-186.93 67.48,-242.1 63.19,-273.03"/>
</g>
<!-- n4&#45;&#45;n10 -->
<g id="edge16" class="edge">
<title>n4&#45;&#45;n10</title>
<path fill="none" stroke="black" d="M96.93,-151.5C119.54,-179.8 163.36,-234.64 187.96,-265.44"/>
</g>
<!-- n4&#45;&#45;n8 -->
<g id="edge18" class="edge">
<title>n4&#45;&#45;n8</title>
<path fill="none" stroke="black" d="M104.89,-129.01C113.14,-127.36 122.48,-125.49 130.73,-123.83"/>
</g>
<!-- n4&#45;&#45;n7 -->
<g id="edge19" class="edge">
<title>n4&#45;&#45;n7</title>
<path fill="none" stroke="black" d="M87.19,-155.82C90.18,-170.21 94.05,-188.85 97.05,-203.27"/>
</g>
<!-- n4&#45;&#45;n6 -->
<g id="edge20" class="edge">
<title>n4&#45;&#45;n6</title>
<path fill="none" stroke="black" d="M99.85,-148.42C115.73,-162.13 139.15,-182.33 155.02,-196.02"/>
</g>
<!-- n4&#45;&#45;n5 -->
<g id="edge21" class="edge">
<title>n4&#45;&#45;n5</title>
<path fill="none" stroke="black" d="M67.12,-150.5C60.61,-157.67 53.05,-166.01 46.54,-173.18"/>
</g>
<!-- n3 -->
<g id="node8" class="node">
<title>n3</title>
<ellipse fill="none" stroke="black" cx="225.76" cy="-169.84" rx="23" ry="23"/>
<text text-anchor="middle" x="225.76" y="-166.14" font-family="Times,serif" font-size="14.00">n3</text>
</g>
<!-- n3&#45;&#45;n9 -->
<g id="edge23" class="edge">
<title>n3&#45;&#45;n9</title>
<path fill="none" stroke="black" d="M207.39,-183.79C175.46,-208.03 110.07,-257.68 78.25,-281.83"/>
</g>
<!-- n3&#45;&#45;n10 -->
<g id="edge22" class="edge">
<title>n3&#45;&#45;n10</title>
<path fill="none" stroke="black" d="M221.97,-192.31C218.74,-211.43 214.08,-238.98 210.6,-259.59"/>
</g>
<!-- n3&#45;&#45;n8 -->
<g id="edge24" class="edge">
<title>n3&#45;&#45;n8</title>
<path fill="none" stroke="black" d="M207.07,-156.84C196.31,-149.35 182.84,-139.98 172.05,-132.47"/>
</g>
<!-- n3&#45;&#45;n7 -->
<g id="edge25" class="edge">
<title>n3&#45;&#45;n7</title>
<path fill="none" stroke="black" d="M205,-179.19C182.1,-189.5 145.46,-206 122.54,-216.32"/>
</g>
<!-- n3&#45;&#45;n6 -->
<g id="edge26" class="edge">
<title>n3&#45;&#45;n6</title>
<path fill="none" stroke="black" d="M207.65,-183.74C202.07,-188.03 195.93,-192.74 190.36,-197.02"/>
</g>
<!-- n3&#45;&#45;n5 -->
<g id="edge27" class="edge">
<title>n3&#45;&#45;n5</title>
<path fill="none" stroke="black" d="M203.05,-172.22C165.65,-176.12 91.5,-183.87 53.99,-187.78"/>
</g>
<!-- n3&#45;&#45;n4 -->
<g id="edge28" class="edge">
<title>n3&#45;&#45;n4</title>
<path fill="none" stroke="black" d="M203.7,-164.24C176.86,-157.43 131.82,-146 104.87,-139.16"/>
</g>
<!-- n2 -->
<g id="node9" class="node">
<title>n2</title>
<ellipse fill="none" stroke="black" cx="22.75" cy="-93.67" rx="23" ry="23"/>
<text text-anchor="middle" x="22.75" y="-89.97" font-family="Times,serif" font-size="14.00">n2</text>
</g>
<!-- n2&#45;&#45;n9 -->
<g id="edge29" class="edge">
<title>n2&#45;&#45;n9</title>
<path fill="none" stroke="black" d="M26.88,-116.06C34.05,-154.88 48.72,-234.27 55.9,-273.16"/>
</g>
<!-- n2&#45;&#45;n8 -->
<g id="edge30" class="edge">
<title>n2&#45;&#45;n8</title>
<path fill="none" stroke="black" d="M45.17,-98.08C69.06,-102.78 106.66,-110.18 130.61,-114.89"/>
</g>
<!-- n2&#45;&#45;n7 -->
<g id="edge31" class="edge">
<title>n2&#45;&#45;n7</title>
<path fill="none" stroke="black" d="M34.57,-113.44C49.45,-138.33 74.88,-180.84 89.8,-205.8"/>
</g>
<!-- n2&#45;&#45;n6 -->
<g id="edge32" class="edge">
<title>n2&#45;&#45;n6</title>
<path fill="none" stroke="black" d="M40.78,-107.81C69.52,-130.34 125.39,-174.15 154.17,-196.71"/>
</g>
<!-- n2&#45;&#45;n5 -->
<g id="edge33" class="edge">
<title>n2&#45;&#45;n5</title>
<path fill="none" stroke="black" d="M24.73,-116.54C26.07,-131.92 27.82,-152.12 29.16,-167.46"/>
</g>
<!-- n2&#45;&#45;n4 -->
<g id="edge34" class="edge">
<title>n2&#45;&#45;n4</title>
<path fill="none" stroke="black" d="M42,-106.49C48.83,-111.04 56.51,-116.15 63.33,-120.7"/>
</g>
<!-- n2&#45;&#45;n3 -->
<g id="edge35" class="edge">
<title>n2&#45;&#45;n3</title>
<path fill="none" stroke="black" d="M44.09,-101.68C83.08,-116.31 165.4,-147.19 204.4,-161.83"/>
</g>
<!-- n1 -->
<g id="node10" class="node">
<title>n1</title>
<ellipse fill="none" stroke="black" cx="217.09" cy="-79.43" rx="23" ry="23"/>
<text text-anchor="middle" x="217.09" y="-75.73" font-family="Times,serif" font-size="14.00">n1</text>
</g>
<!-- n1&#45;&#45;n10 -->
<g id="edge36" class="edge">
<title>n1&#45;&#45;n10</title>
<path fill="none" stroke="black" d="M215.84,-102.53C213.77,-140.78 209.65,-217.2 207.39,-258.95"/>
</g>
<!-- n1&#45;&#45;n8 -->
<g id="edge37" class="edge">
<title>n1&#45;&#45;n8</title>
<path fill="none" stroke="black" d="M197.56,-91.62C189.63,-96.57 180.49,-102.28 172.58,-107.22"/>
</g>
<!-- n1&#45;&#45;n7 -->
<g id="edge38" class="edge">
<title>n1&#45;&#45;n7</title>
<path fill="none" stroke="black" d="M202.94,-97.37C180.8,-125.44 138.19,-179.46 115.97,-207.62"/>
</g>
<!-- n1&#45;&#45;n6 -->
<g id="edge39" class="edge">
<title>n1&#45;&#45;n6</title>
<path fill="none" stroke="black" d="M209.69,-101.14C201.38,-125.5 187.99,-164.79 179.68,-189.16"/>
</g>
<!-- n1&#45;&#45;n5 -->
<g id="edge40" class="edge">
<title>n1&#45;&#45;n5</title>
<path fill="none" stroke="black" d="M197.54,-91.08C161.82,-112.34 86.42,-157.24 50.69,-178.52"/>
</g>
<!-- n1&#45;&#45;n4 -->
<g id="edge41" class="edge">
<title>n1&#45;&#45;n4</title>
<path fill="none" stroke="black" d="M195.77,-88C170.58,-98.12 128.92,-114.86 103.77,-124.97"/>
</g>
<!-- n1&#45;&#45;n3 -->
<g id="edge42" class="edge">
<title>n1&#45;&#45;n3</title>
<path fill="none" stroke="black" d="M219.28,-102.25C220.59,-115.95 222.26,-133.33 223.57,-147.04"/>
</g>
<!-- n1&#45;&#45;n2 -->
<g id="edge43" class="edge">
<title>n1&#45;&#45;n2</title>
<path fill="none" stroke="black" d="M194.03,-81.12C156.53,-83.87 82.76,-89.27 45.47,-92"/>
</g>
<!-- n0 -->
<g id="node11" class="node">
<title>n0</title>
<ellipse fill="none" stroke="black" cx="115.46" cy="-22.75" rx="23" ry="23"/>
<text text-anchor="middle" x="115.46" y="-19.05" font-family="Times,serif" font-size="14.00">n0</text>
</g>
<!-- n0&#45;&#45;n8 -->
<g id="edge44" class="edge">
<title>n0&#45;&#45;n8</title>
<path fill="none" stroke="black" d="M123.83,-44.18C130.08,-60.19 138.58,-81.96 144.83,-97.95"/>
</g>
<!-- n0&#45;&#45;n7 -->
<g id="edge45" class="edge">
<title>n0&#45;&#45;n7</title>
<path fill="none" stroke="black" d="M113.91,-45.63C111.26,-84.72 105.9,-163.87 103.25,-202.9"/>
</g>
<!-- n0&#45;&#45;n6 -->
<g id="edge46" class="edge">
<title>n0&#45;&#45;n6</title>
<path fill="none" stroke="black" d="M122.08,-44.7C133.03,-80.96 154.76,-152.93 165.68,-189.09"/>
</g>
<!-- n0&#45;&#45;n5 -->
<g id="edge47" class="edge">
<title>n0&#45;&#45;n5</title>
<path fill="none" stroke="black" d="M105.12,-43.28C88.89,-75.5 57.62,-137.57 41.42,-169.73"/>
</g>
<!-- n0&#45;&#45;n4 -->
<g id="edge48" class="edge">
<title>n0&#45;&#45;n4</title>
<path fill="none" stroke="black" d="M108.95,-44.63C103.19,-64.04 94.8,-92.26 89.04,-111.66"/>
</g>
<!-- n0&#45;&#45;n3 -->
<g id="edge49" class="edge">
<title>n0&#45;&#45;n3</title>
<path fill="none" stroke="black" d="M129.2,-41.08C150.34,-69.27 190.6,-122.95 211.84,-151.28"/>
</g>
<!-- n0&#45;&#45;n2 -->
<g id="edge50" class="edge">
<title>n0&#45;&#45;n2</title>
<path fill="none" stroke="black" d="M97.14,-36.76C80.89,-49.19 57.27,-67.26 41.03,-79.69"/>
</g>
<!-- n0&#45;&#45;n1 -->
<g id="edge51" class="edge">
<title>n0&#45;&#45;n1</title>
<path fill="none" stroke="black" d="M135.54,-33.95C153.35,-43.89 179.25,-58.33 197.05,-68.26"/>
</g>
</g>
</svg>
