<?xml version="1.0" standalone="yes"?>
<!-- SVG graphic -->
<svg xmlns='http://www.w3.org/2000/svg' xmlns:xlink='http://www.w3.org/1999/xlink'
 version="1.1">
<rect x="0" y="0" width="6" height="200" stroke="black" stroke-width="1" fill="blue" opacity="1" tooltip="enable"><title>(0,9220)</title></rect><rect x="6" y="99.1974" width="6" height="100.803" stroke="black" stroke-width="1" fill="blue" opacity="1" tooltip="enable"><title>(0.0388451,4647)</title></rect><rect x="12" y="119.328" width="6" height="80.6725" stroke="black" stroke-width="1" fill="blue" opacity="1" tooltip="enable"><title>(0.0776901,3719)</title></rect><rect x="18" y="127.722" width="6" height="72.2777" stroke="black" stroke-width="1" fill="blue" opacity="1" tooltip="enable"><title>(0.116535,3332)</title></rect><rect x="24" y="141.475" width="6" height="58.5249" stroke="black" stroke-width="1" fill="blue" opacity="1" tooltip="enable"><title>(0.15538,2698)</title></rect><rect x="30" y="148.807" width="6" height="51.1931" stroke="black" stroke-width="1" fill="blue" opacity="1" tooltip="enable"><title>(0.194225,2360)</title></rect><rect x="36" y="155.705" width="6" height="44.295" stroke="black" stroke-width="1" fill="blue" opacity="1" tooltip="enable"><title>(0.23307,2042)</title></rect><rect x="42" y="162.408" width="6" height="37.5922" stroke="black" stroke-width="1" fill="blue" opacity="1" tooltip="enable"><title>(0.271915,1733)</title></rect><rect x="48" y="168.503" width="6" height="31.4967" stroke="black" stroke-width="1" fill="blue" opacity="1" tooltip="enable"><title>(0.31076,1452)</title></rect><rect x="54" y="174.165" width="6" height="25.8351" stroke="black" stroke-width="1" fill="blue" opacity="1" tooltip="enable"><title>(0.349606,1191)</title></rect><rect x="60" y="177.657" width="6" height="22.3427" stroke="black" stroke-width="1" fill="blue" opacity="1" tooltip="enable"><title>(0.388451,1030)</title></rect><rect x="66" y="180.542" width="6" height="19.4577" stroke="black" stroke-width="1" fill="blue" opacity="1" tooltip="enable"><title>(0.427296,897)</title></rect><rect x="72" y="183.189" width="6" height="16.8113" stroke="black" stroke-width="1" fill="blue" opacity="1" tooltip="enable"><title>(0.466141,775)</title></rect><rect x="78" y="186.876" width="6" height="13.1236" stroke="black" stroke-width="1" fill="blue" opacity="1" tooltip="enable"><title>(0.504986,605)</title></rect><rect x="84" y="187.983" width="6" height="12.0174" stroke="black" stroke-width="1" fill="blue" opacity="1" tooltip="enable"><title>(0.543831,554)</title></rect><rect x="90" y="188.829" width="6" height="11.1714" stroke="black" stroke-width="1" fill="blue" opacity="1" tooltip="enable"><title>(0.582676,515)</title></rect><rect x="96" y="190.868" width="6" height="9.13232" stroke="black" stroke-width="1" fill="blue" opacity="1" tooltip="enable"><title>(0.621521,421)</title></rect><rect x="102" y="192.495" width="6" height="7.50542" stroke="black" stroke-width="1" fill="blue" opacity="1" tooltip="enable"><title>(0.660366,346)</title></rect><rect x="108" y="192.928" width="6" height="7.07158" stroke="black" stroke-width="1" fill="blue" opacity="1" tooltip="enable"><title>(0.699211,326)</title></rect><rect x="114" y="193.644" width="6" height="6.35575" stroke="black" stroke-width="1" fill="blue" opacity="1" tooltip="enable"><title>(0.738056,293)</title></rect><rect x="120" y="194.555" width="6" height="5.44469" stroke="black" stroke-width="1" fill="blue" opacity="1" tooltip="enable"><title>(0.776901,251)</title></rect><rect x="126" y="195.51" width="6" height="4.49024" stroke="black" stroke-width="1" fill="blue" opacity="1" tooltip="enable"><title>(0.815746,207)</title></rect><rect x="132" y="195.38" width="6" height="4.62039" stroke="black" stroke-width="1" fill="blue" opacity="1" tooltip="enable"><title>(0.854591,213)</title></rect><rect x="138" y="196.139" width="6" height="3.86117" stroke="black" stroke-width="1" fill="blue" opacity="1" tooltip="enable"><title>(0.893436,178)</title></rect><rect x="144" y="196.529" width="6" height="3.47072" stroke="black" stroke-width="1" fill="blue" opacity="1" tooltip="enable"><title>(0.932282,160)</title></rect><rect x="150" y="196.681" width="6" height="3.31887" stroke="black" stroke-width="1" fill="blue" opacity="1" tooltip="enable"><title>(0.971127,153)</title></rect><rect x="156" y="197.093" width="6" height="2.90672" stroke="black" stroke-width="1" fill="blue" opacity="1" tooltip="enable"><title>(1.00997,134)</title></rect><rect x="162" y="197.44" width="6" height="2.55965" stroke="black" stroke-width="1" fill="blue" opacity="1" tooltip="enable"><title>(1.04882,118)</title></rect><rect x="168" y="197.549" width="6" height="2.45119" stroke="black" stroke-width="1" fill="blue" opacity="1" tooltip="enable"><title>(1.08766,113)</title></rect><rect x="174" y="197.787" width="6" height="2.21258" stroke="black" stroke-width="1" fill="blue" opacity="1" tooltip="enable"><title>(1.12651,102)</title></rect><rect x="180" y="197.679" width="6" height="2.32104" stroke="black" stroke-width="1" fill="blue" opacity="1" tooltip="enable"><title>(1.16535,107)</title></rect><rect x="186" y="198.265" width="6" height="1.73536" stroke="black" stroke-width="1" fill="blue" opacity="1" tooltip="enable"><title>(1.2042,80)</title></rect><rect x="192" y="198.373" width="6" height="1.6269" stroke="black" stroke-width="1" fill="blue" opacity="1" tooltip="enable"><title>(1.24304,75)</title></rect><rect x="198" y="198.416" width="6" height="1.58351" stroke="black" stroke-width="1" fill="blue" opacity="1" tooltip="enable"><title>(1.28189,73)</title></rect><rect x="204" y="198.59" width="6" height="1.40998" stroke="black" stroke-width="1" fill="blue" opacity="1" tooltip="enable"><title>(1.32073,65)</title></rect><rect x="210" y="198.633" width="6" height="1.36659" stroke="black" stroke-width="1" fill="blue" opacity="1" tooltip="enable"><title>(1.35958,63)</title></rect><rect x="216" y="199.176" width="6" height="0.824295" stroke="black" stroke-width="1" fill="blue" opacity="1" tooltip="enable"><title>(1.39842,38)</title></rect><rect x="222" y="199.219" width="6" height="0.780911" stroke="black" stroke-width="1" fill="blue" opacity="1" tooltip="enable"><title>(1.43727,36)</title></rect><rect x="228" y="199.241" width="6" height="0.759219" stroke="black" stroke-width="1" fill="blue" opacity="1" tooltip="enable"><title>(1.47611,35)</title></rect><rect x="234" y="198.98" width="6" height="1.01952" stroke="black" stroke-width="1" fill="blue" opacity="1" tooltip="enable"><title>(1.51496,47)</title></rect><rect x="240" y="199.393" width="6" height="0.607375" stroke="black" stroke-width="1" fill="blue" opacity="1" tooltip="enable"><title>(1.5538,28)</title></rect><rect x="246" y="199.349" width="6" height="0.650759" stroke="black" stroke-width="1" fill="blue" opacity="1" tooltip="enable"><title>(1.59265,30)</title></rect><rect x="252" y="199.132" width="6" height="0.867679" stroke="black" stroke-width="1" fill="blue" opacity="1" tooltip="enable"><title>(1.63149,40)</title></rect><rect x="258" y="199.588" width="6" height="0.412148" stroke="black" stroke-width="1" fill="blue" opacity="1" tooltip="enable"><title>(1.67034,19)</title></rect><rect x="264" y="199.262" width="6" height="0.737527" stroke="black" stroke-width="1" fill="blue" opacity="1" tooltip="enable"><title>(1.70918,34)</title></rect><rect x="270" y="199.328" width="6" height="0.672451" stroke="black" stroke-width="1" fill="blue" opacity="1" tooltip="enable"><title>(1.74803,31)</title></rect><rect x="276" y="199.479" width="6" height="0.520607" stroke="black" stroke-width="1" fill="blue" opacity="1" tooltip="enable"><title>(1.78687,24)</title></rect><rect x="282" y="199.544" width="6" height="0.455531" stroke="black" stroke-width="1" fill="blue" opacity="1" tooltip="enable"><title>(1.82572,21)</title></rect><rect x="288" y="199.61" width="6" height="0.390456" stroke="black" stroke-width="1" fill="blue" opacity="1" tooltip="enable"><title>(1.86456,18)</title></rect><rect x="294" y="199.501" width="6" height="0.498915" stroke="black" stroke-width="1" fill="blue" opacity="1" tooltip="enable"><title>(1.90341,23)</title></rect><rect x="300" y="199.523" width="6" height="0.477223" stroke="black" stroke-width="1" fill="blue" opacity="1" tooltip="enable"><title>(1.94225,22)</title></rect><rect x="306" y="199.74" width="6" height="0.260304" stroke="black" stroke-width="1" fill="blue" opacity="1" tooltip="enable"><title>(1.9811,12)</title></rect><rect x="312" y="199.783" width="6" height="0.21692" stroke="black" stroke-width="1" fill="blue" opacity="1" tooltip="enable"><title>(2.01994,10)</title></rect><rect x="318" y="199.588" width="6" height="0.412148" stroke="black" stroke-width="1" fill="blue" opacity="1" tooltip="enable"><title>(2.05879,19)</title></rect><rect x="324" y="199.675" width="6" height="0.32538" stroke="black" stroke-width="1" fill="blue" opacity="1" tooltip="enable"><title>(2.09763,15)</title></rect><rect x="330" y="199.783" width="6" height="0.21692" stroke="black" stroke-width="1" fill="blue" opacity="1" tooltip="enable"><title>(2.13648,10)</title></rect><rect x="336" y="199.805" width="6" height="0.195228" stroke="black" stroke-width="1" fill="blue" opacity="1" tooltip="enable"><title>(2.17532,9)</title></rect><rect x="342" y="199.61" width="6" height="0.390456" stroke="black" stroke-width="1" fill="blue" opacity="1" tooltip="enable"><title>(2.21417,18)</title></rect><rect x="348" y="199.74" width="6" height="0.260304" stroke="black" stroke-width="1" fill="blue" opacity="1" tooltip="enable"><title>(2.25301,12)</title></rect><rect x="354" y="199.805" width="6" height="0.195228" stroke="black" stroke-width="1" fill="blue" opacity="1" tooltip="enable"><title>(2.29186,9)</title></rect><rect x="360" y="199.87" width="6" height="0.130152" stroke="black" stroke-width="1" fill="blue" opacity="1" tooltip="enable"><title>(2.3307,6)</title></rect><rect x="366" y="199.826" width="6" height="0.173536" stroke="black" stroke-width="1" fill="blue" opacity="1" tooltip="enable"><title>(2.36955,8)</title></rect><rect x="372" y="199.826" width="6" height="0.173536" stroke="black" stroke-width="1" fill="blue" opacity="1" tooltip="enable"><title>(2.40839,8)</title></rect><rect x="378" y="199.805" width="6" height="0.195228" stroke="black" stroke-width="1" fill="blue" opacity="1" tooltip="enable"><title>(2.44724,9)</title></rect><rect x="384" y="199.805" width="6" height="0.195228" stroke="black" stroke-width="1" fill="blue" opacity="1" tooltip="enable"><title>(2.48608,9)</title></rect><rect x="390" y="199.848" width="6" height="0.151844" stroke="black" stroke-width="1" fill="blue" opacity="1" tooltip="enable"><title>(2.52493,7)</title></rect><rect x="396" y="199.848" width="6" height="0.151844" stroke="black" stroke-width="1" fill="blue" opacity="1" tooltip="enable"><title>(2.56377,7)</title></rect><rect x="402" y="199.87" width="6" height="0.130152" stroke="black" stroke-width="1" fill="blue" opacity="1" tooltip="enable"><title>(2.60262,6)</title></rect><rect x="408" y="199.761" width="6" height="0.238612" stroke="black" stroke-width="1" fill="blue" opacity="1" tooltip="enable"><title>(2.64146,11)</title></rect><rect x="414" y="199.935" width="6" height="0.0650759" stroke="black" stroke-width="1" fill="blue" opacity="1" tooltip="enable"><title>(2.68031,3)</title></rect><rect x="420" y="199.892" width="6" height="0.10846" stroke="black" stroke-width="1" fill="blue" opacity="1" tooltip="enable"><title>(2.71915,5)</title></rect><rect x="426" y="199.87" width="6" height="0.130152" stroke="black" stroke-width="1" fill="blue" opacity="1" tooltip="enable"><title>(2.758,6)</title></rect><rect x="432" y="199.935" width="6" height="0.0650759" stroke="black" stroke-width="1" fill="blue" opacity="1" tooltip="enable"><title>(2.79684,3)</title></rect><rect x="438" y="199.826" width="6" height="0.173536" stroke="black" stroke-width="1" fill="blue" opacity="1" tooltip="enable"><title>(2.83569,8)</title></rect><rect x="444" y="199.87" width="6" height="0.130152" stroke="black" stroke-width="1" fill="blue" opacity="1" tooltip="enable"><title>(2.87453,6)</title></rect><rect x="450" y="199.957" width="6" height="0.0433839" stroke="black" stroke-width="1" fill="blue" opacity="1" tooltip="enable"><title>(2.91338,2)</title></rect><rect x="456" y="199.978" width="6" height="0.021692" stroke="black" stroke-width="1" fill="blue" opacity="1" tooltip="enable"><title>(2.95222,1)</title></rect><rect x="462" y="199.957" width="6" height="0.0433839" stroke="black" stroke-width="1" fill="blue" opacity="1" tooltip="enable"><title>(2.99107,2)</title></rect><rect x="468" y="199.913" width="6" height="0.0867679" stroke="black" stroke-width="1" fill="blue" opacity="1" tooltip="enable"><title>(3.02991,4)</title></rect><rect x="474" y="199.957" width="6" height="0.0433839" stroke="black" stroke-width="1" fill="blue" opacity="1" tooltip="enable"><title>(3.06876,2)</title></rect><rect x="480" y="199.957" width="6" height="0.0433839" stroke="black" stroke-width="1" fill="blue" opacity="1" tooltip="enable"><title>(3.10761,2)</title></rect><rect x="486" y="199.978" width="6" height="0.021692" stroke="black" stroke-width="1" fill="blue" opacity="1" tooltip="enable"><title>(3.14645,1)</title></rect><rect x="492" y="199.978" width="6" height="0.021692" stroke="black" stroke-width="1" fill="blue" opacity="1" tooltip="enable"><title>(3.1853,1)</title></rect><rect x="498" y="199.892" width="6" height="0.10846" stroke="black" stroke-width="1" fill="blue" opacity="1" tooltip="enable"><title>(3.22414,5)</title></rect><rect x="504" y="200" width="6" height="0" stroke="black" stroke-width="1" fill="blue" opacity="1" tooltip="enable"><title>(3.26299,0)</title></rect><rect x="510" y="199.957" width="6" height="0.0433839" stroke="black" stroke-width="1" fill="blue" opacity="1" tooltip="enable"><title>(3.30183,2)</title></rect><rect x="516" y="200" width="6" height="0" stroke="black" stroke-width="1" fill="blue" opacity="1" tooltip="enable"><title>(3.34068,0)</title></rect><rect x="522" y="199.848" width="6" height="0.151844" stroke="black" stroke-width="1" fill="blue" opacity="1" tooltip="enable"><title>(3.37952,7)</title></rect><rect x="528" y="199.87" width="6" height="0.130152" stroke="black" stroke-width="1" fill="blue" opacity="1" tooltip="enable"><title>(3.41837,6)</title></rect><rect x="534" y="199.935" width="6" height="0.0650759" stroke="black" stroke-width="1" fill="blue" opacity="1" tooltip="enable"><title>(3.45721,3)</title></rect><rect x="540" y="200" width="6" height="0" stroke="black" stroke-width="1" fill="blue" opacity="1" tooltip="enable"><title>(3.49606,0)</title></rect><rect x="546" y="200" width="6" height="0" stroke="black" stroke-width="1" fill="blue" opacity="1" tooltip="enable"><title>(3.5349,0)</title></rect><rect x="552" y="200" width="6" height="0" stroke="black" stroke-width="1" fill="blue" opacity="1" tooltip="enable"><title>(3.57375,0)</title></rect><rect x="558" y="199.978" width="6" height="0.021692" stroke="black" stroke-width="1" fill="blue" opacity="1" tooltip="enable"><title>(3.61259,1)</title></rect><rect x="564" y="200" width="6" height="0" stroke="black" stroke-width="1" fill="blue" opacity="1" tooltip="enable"><title>(3.65144,0)</title></rect><rect x="570" y="199.978" width="6" height="0.021692" stroke="black" stroke-width="1" fill="blue" opacity="1" tooltip="enable"><title>(3.69028,1)</title></rect><rect x="576" y="199.978" width="6" height="0.021692" stroke="black" stroke-width="1" fill="blue" opacity="1" tooltip="enable"><title>(3.72913,1)</title></rect><rect x="582" y="199.935" width="6" height="0.0650759" stroke="black" stroke-width="1" fill="blue" opacity="1" tooltip="enable"><title>(3.76797,3)</title></rect><rect x="588" y="199.935" width="6" height="0.0650759" stroke="black" stroke-width="1" fill="blue" opacity="1" tooltip="enable"><title>(3.80682,3)</title></rect><rect x="594" y="200" width="6" height="0" stroke="black" stroke-width="1" fill="blue" opacity="1" tooltip="enable"><title>(3.84566,0)</title></rect><text x="30" y="240" font-size="20" fill="black">0</text>
<text x="600" y="240" font-size="20" fill="black">3.88451</text>
<polyline points="0,220,600,220" stroke="black" stroke-width="1" fill="none" opacity="1"/>
<text x="720" y="20" font-size="20" fill="black">9220</text>
<text x="720" y="200" font-size="20" fill="black">0</text>
<polyline points="660,0,660,200" stroke="black" stroke-width="1" fill="none" opacity="1"/>
</svg>