<?xml version="1.0" standalone="yes"?>
<!-- SVG graphic -->
<svg xmlns='http://www.w3.org/2000/svg' xmlns:xlink='http://www.w3.org/1999/xlink'
 version="1.1">
<rect x="0" y="0" width="6" height="200" stroke="black" stroke-width="1" fill="blue" opacity="1" tooltip="enable"><title>(0,9231)</title></rect><rect x="6" y="98.9492" width="6" height="101.051" stroke="black" stroke-width="1" fill="blue" opacity="1" tooltip="enable"><title>(0.0388985,4664)</title></rect><rect x="12" y="119.532" width="6" height="80.468" stroke="black" stroke-width="1" fill="blue" opacity="1" tooltip="enable"><title>(0.077797,3714)</title></rect><rect x="18" y="129.585" width="6" height="70.4149" stroke="black" stroke-width="1" fill="blue" opacity="1" tooltip="enable"><title>(0.116696,3250)</title></rect><rect x="24" y="140.981" width="6" height="59.0185" stroke="black" stroke-width="1" fill="blue" opacity="1" tooltip="enable"><title>(0.155594,2724)</title></rect><rect x="30" y="148.76" width="6" height="51.2404" stroke="black" stroke-width="1" fill="blue" opacity="1" tooltip="enable"><title>(0.194493,2365)</title></rect><rect x="36" y="156.213" width="6" height="43.7872" stroke="black" stroke-width="1" fill="blue" opacity="1" tooltip="enable"><title>(0.233391,2021)</title></rect><rect x="42" y="162.323" width="6" height="37.6774" stroke="black" stroke-width="1" fill="blue" opacity="1" tooltip="enable"><title>(0.27229,1739)</title></rect><rect x="48" y="168.649" width="6" height="31.3509" stroke="black" stroke-width="1" fill="blue" opacity="1" tooltip="enable"><title>(0.311188,1447)</title></rect><rect x="54" y="173.611" width="6" height="26.3893" stroke="black" stroke-width="1" fill="blue" opacity="1" tooltip="enable"><title>(0.350087,1218)</title></rect><rect x="60" y="178.161" width="6" height="21.8395" stroke="black" stroke-width="1" fill="blue" opacity="1" tooltip="enable"><title>(0.388985,1008)</title></rect><rect x="66" y="180.414" width="6" height="19.5862" stroke="black" stroke-width="1" fill="blue" opacity="1" tooltip="enable"><title>(0.427884,904)</title></rect><rect x="72" y="183.447" width="6" height="16.5529" stroke="black" stroke-width="1" fill="blue" opacity="1" tooltip="enable"><title>(0.466782,764)</title></rect><rect x="78" y="186.827" width="6" height="13.173" stroke="black" stroke-width="1" fill="blue" opacity="1" tooltip="enable"><title>(0.505681,608)</title></rect><rect x="84" y="188.04" width="6" height="11.9597" stroke="black" stroke-width="1" fill="blue" opacity="1" tooltip="enable"><title>(0.544579,552)</title></rect><rect x="90" y="188.777" width="6" height="11.2231" stroke="black" stroke-width="1" fill="blue" opacity="1" tooltip="enable"><title>(0.583478,518)</title></rect><rect x="96" y="191.074" width="6" height="8.92644" stroke="black" stroke-width="1" fill="blue" opacity="1" tooltip="enable"><title>(0.622376,412)</title></rect><rect x="102" y="192.374" width="6" height="7.62648" stroke="black" stroke-width="1" fill="blue" opacity="1" tooltip="enable"><title>(0.661275,352)</title></rect><rect x="108" y="193.197" width="6" height="6.80316" stroke="black" stroke-width="1" fill="blue" opacity="1" tooltip="enable"><title>(0.700173,314)</title></rect><rect x="114" y="193.868" width="6" height="6.13151" stroke="black" stroke-width="1" fill="blue" opacity="1" tooltip="enable"><title>(0.739072,283)</title></rect><rect x="120" y="194.345" width="6" height="5.65486" stroke="black" stroke-width="1" fill="blue" opacity="1" tooltip="enable"><title>(0.77797,261)</title></rect><rect x="126" y="195.45" width="6" height="4.54989" stroke="black" stroke-width="1" fill="blue" opacity="1" tooltip="enable"><title>(0.816869,210)</title></rect><rect x="132" y="195.233" width="6" height="4.76655" stroke="black" stroke-width="1" fill="blue" opacity="1" tooltip="enable"><title>(0.855767,220)</title></rect><rect x="138" y="196.36" width="6" height="3.63991" stroke="black" stroke-width="1" fill="blue" opacity="1" tooltip="enable"><title>(0.894666,168)</title></rect><rect x="144" y="196.403" width="6" height="3.59658" stroke="black" stroke-width="1" fill="blue" opacity="1" tooltip="enable"><title>(0.933564,166)</title></rect><rect x="150" y="196.685" width="6" height="3.31492" stroke="black" stroke-width="1" fill="blue" opacity="1" tooltip="enable"><title>(0.972463,153)</title></rect><rect x="156" y="197.248" width="6" height="2.7516" stroke="black" stroke-width="1" fill="blue" opacity="1" tooltip="enable"><title>(1.01136,127)</title></rect><rect x="162" y="197.335" width="6" height="2.66493" stroke="black" stroke-width="1" fill="blue" opacity="1" tooltip="enable"><title>(1.05026,123)</title></rect><rect x="168" y="197.768" width="6" height="2.23161" stroke="black" stroke-width="1" fill="blue" opacity="1" tooltip="enable"><title>(1.08916,103)</title></rect><rect x="174" y="197.617" width="6" height="2.38327" stroke="black" stroke-width="1" fill="blue" opacity="1" tooltip="enable"><title>(1.12806,110)</title></rect><rect x="180" y="197.877" width="6" height="2.12328" stroke="black" stroke-width="1" fill="blue" opacity="1" tooltip="enable"><title>(1.16696,98)</title></rect><rect x="186" y="198.115" width="6" height="1.88495" stroke="black" stroke-width="1" fill="blue" opacity="1" tooltip="enable"><title>(1.20585,87)</title></rect><rect x="192" y="198.418" width="6" height="1.58163" stroke="black" stroke-width="1" fill="blue" opacity="1" tooltip="enable"><title>(1.24475,73)</title></rect><rect x="198" y="198.353" width="6" height="1.64663" stroke="black" stroke-width="1" fill="blue" opacity="1" tooltip="enable"><title>(1.28365,76)</title></rect><rect x="204" y="198.657" width="6" height="1.3433" stroke="black" stroke-width="1" fill="blue" opacity="1" tooltip="enable"><title>(1.32255,62)</title></rect><rect x="210" y="198.613" width="6" height="1.38663" stroke="black" stroke-width="1" fill="blue" opacity="1" tooltip="enable"><title>(1.36145,64)</title></rect><rect x="216" y="199.285" width="6" height="0.714982" stroke="black" stroke-width="1" fill="blue" opacity="1" tooltip="enable"><title>(1.40035,33)</title></rect><rect x="222" y="199.198" width="6" height="0.801647" stroke="black" stroke-width="1" fill="blue" opacity="1" tooltip="enable"><title>(1.43924,37)</title></rect><rect x="228" y="199.198" width="6" height="0.801647" stroke="black" stroke-width="1" fill="blue" opacity="1" tooltip="enable"><title>(1.47814,37)</title></rect><rect x="234" y="199.133" width="6" height="0.866645" stroke="black" stroke-width="1" fill="blue" opacity="1" tooltip="enable"><title>(1.51704,40)</title></rect><rect x="240" y="199.263" width="6" height="0.736648" stroke="black" stroke-width="1" fill="blue" opacity="1" tooltip="enable"><title>(1.55594,34)</title></rect><rect x="246" y="199.393" width="6" height="0.606651" stroke="black" stroke-width="1" fill="blue" opacity="1" tooltip="enable"><title>(1.59484,28)</title></rect><rect x="252" y="199.22" width="6" height="0.77998" stroke="black" stroke-width="1" fill="blue" opacity="1" tooltip="enable"><title>(1.63374,36)</title></rect><rect x="258" y="199.458" width="6" height="0.541653" stroke="black" stroke-width="1" fill="blue" opacity="1" tooltip="enable"><title>(1.67264,25)</title></rect><rect x="264" y="199.328" width="6" height="0.67165" stroke="black" stroke-width="1" fill="blue" opacity="1" tooltip="enable"><title>(1.71153,31)</title></rect><rect x="270" y="199.393" width="6" height="0.606651" stroke="black" stroke-width="1" fill="blue" opacity="1" tooltip="enable"><title>(1.75043,28)</title></rect><rect x="276" y="199.523" width="6" height="0.476655" stroke="black" stroke-width="1" fill="blue" opacity="1" tooltip="enable"><title>(1.78933,22)</title></rect><rect x="282" y="199.567" width="6" height="0.433322" stroke="black" stroke-width="1" fill="blue" opacity="1" tooltip="enable"><title>(1.82823,20)</title></rect><rect x="288" y="199.588" width="6" height="0.411656" stroke="black" stroke-width="1" fill="blue" opacity="1" tooltip="enable"><title>(1.86713,19)</title></rect><rect x="294" y="199.437" width="6" height="0.563319" stroke="black" stroke-width="1" fill="blue" opacity="1" tooltip="enable"><title>(1.90603,26)</title></rect><rect x="300" y="199.502" width="6" height="0.498321" stroke="black" stroke-width="1" fill="blue" opacity="1" tooltip="enable"><title>(1.94493,23)</title></rect><rect x="306" y="199.848" width="6" height="0.151663" stroke="black" stroke-width="1" fill="blue" opacity="1" tooltip="enable"><title>(1.98382,7)</title></rect><rect x="312" y="199.783" width="6" height="0.216661" stroke="black" stroke-width="1" fill="blue" opacity="1" tooltip="enable"><title>(2.02272,10)</title></rect><rect x="318" y="199.588" width="6" height="0.411656" stroke="black" stroke-width="1" fill="blue" opacity="1" tooltip="enable"><title>(2.06162,19)</title></rect><rect x="324" y="199.718" width="6" height="0.28166" stroke="black" stroke-width="1" fill="blue" opacity="1" tooltip="enable"><title>(2.10052,13)</title></rect><rect x="330" y="199.74" width="6" height="0.259993" stroke="black" stroke-width="1" fill="blue" opacity="1" tooltip="enable"><title>(2.13942,12)</title></rect><rect x="336" y="199.805" width="6" height="0.194995" stroke="black" stroke-width="1" fill="blue" opacity="1" tooltip="enable"><title>(2.17832,9)</title></rect><rect x="342" y="199.632" width="6" height="0.368324" stroke="black" stroke-width="1" fill="blue" opacity="1" tooltip="enable"><title>(2.21722,17)</title></rect><rect x="348" y="199.675" width="6" height="0.324992" stroke="black" stroke-width="1" fill="blue" opacity="1" tooltip="enable"><title>(2.25611,15)</title></rect><rect x="354" y="199.805" width="6" height="0.194995" stroke="black" stroke-width="1" fill="blue" opacity="1" tooltip="enable"><title>(2.29501,9)</title></rect><rect x="360" y="199.87" width="6" height="0.129997" stroke="black" stroke-width="1" fill="blue" opacity="1" tooltip="enable"><title>(2.33391,6)</title></rect><rect x="366" y="199.87" width="6" height="0.129997" stroke="black" stroke-width="1" fill="blue" opacity="1" tooltip="enable"><title>(2.37281,6)</title></rect><rect x="372" y="199.87" width="6" height="0.129997" stroke="black" stroke-width="1" fill="blue" opacity="1" tooltip="enable"><title>(2.41171,6)</title></rect><rect x="378" y="199.827" width="6" height="0.173329" stroke="black" stroke-width="1" fill="blue" opacity="1" tooltip="enable"><title>(2.45061,8)</title></rect><rect x="384" y="199.805" width="6" height="0.194995" stroke="black" stroke-width="1" fill="blue" opacity="1" tooltip="enable"><title>(2.4895,9)</title></rect><rect x="390" y="199.805" width="6" height="0.194995" stroke="black" stroke-width="1" fill="blue" opacity="1" tooltip="enable"><title>(2.5284,9)</title></rect><rect x="396" y="199.848" width="6" height="0.151663" stroke="black" stroke-width="1" fill="blue" opacity="1" tooltip="enable"><title>(2.5673,7)</title></rect><rect x="402" y="199.87" width="6" height="0.129997" stroke="black" stroke-width="1" fill="blue" opacity="1" tooltip="enable"><title>(2.6062,6)</title></rect><rect x="408" y="199.783" width="6" height="0.216661" stroke="black" stroke-width="1" fill="blue" opacity="1" tooltip="enable"><title>(2.6451,10)</title></rect><rect x="414" y="199.957" width="6" height="0.0433322" stroke="black" stroke-width="1" fill="blue" opacity="1" tooltip="enable"><title>(2.684,2)</title></rect><rect x="420" y="199.87" width="6" height="0.129997" stroke="black" stroke-width="1" fill="blue" opacity="1" tooltip="enable"><title>(2.7229,6)</title></rect><rect x="426" y="199.892" width="6" height="0.108331" stroke="black" stroke-width="1" fill="blue" opacity="1" tooltip="enable"><title>(2.76179,5)</title></rect><rect x="432" y="199.957" width="6" height="0.0433322" stroke="black" stroke-width="1" fill="blue" opacity="1" tooltip="enable"><title>(2.80069,2)</title></rect><rect x="438" y="199.848" width="6" height="0.151663" stroke="black" stroke-width="1" fill="blue" opacity="1" tooltip="enable"><title>(2.83959,7)</title></rect><rect x="444" y="199.913" width="6" height="0.0866645" stroke="black" stroke-width="1" fill="blue" opacity="1" tooltip="enable"><title>(2.87849,4)</title></rect><rect x="450" y="199.935" width="6" height="0.0649984" stroke="black" stroke-width="1" fill="blue" opacity="1" tooltip="enable"><title>(2.91739,3)</title></rect><rect x="456" y="199.978" width="6" height="0.0216661" stroke="black" stroke-width="1" fill="blue" opacity="1" tooltip="enable"><title>(2.95629,1)</title></rect><rect x="462" y="199.935" width="6" height="0.0649984" stroke="black" stroke-width="1" fill="blue" opacity="1" tooltip="enable"><title>(2.99519,3)</title></rect><rect x="468" y="199.935" width="6" height="0.0649984" stroke="black" stroke-width="1" fill="blue" opacity="1" tooltip="enable"><title>(3.03408,3)</title></rect><rect x="474" y="199.957" width="6" height="0.0433322" stroke="black" stroke-width="1" fill="blue" opacity="1" tooltip="enable"><title>(3.07298,2)</title></rect><rect x="480" y="199.957" width="6" height="0.0433322" stroke="black" stroke-width="1" fill="blue" opacity="1" tooltip="enable"><title>(3.11188,2)</title></rect><rect x="486" y="200" width="6" height="0" stroke="black" stroke-width="1" fill="blue" opacity="1" tooltip="enable"><title>(3.15078,0)</title></rect><rect x="492" y="199.892" width="6" height="0.108331" stroke="black" stroke-width="1" fill="blue" opacity="1" tooltip="enable"><title>(3.18968,5)</title></rect><rect x="498" y="199.957" width="6" height="0.0433322" stroke="black" stroke-width="1" fill="blue" opacity="1" tooltip="enable"><title>(3.22858,2)</title></rect><rect x="504" y="199.978" width="6" height="0.0216661" stroke="black" stroke-width="1" fill="blue" opacity="1" tooltip="enable"><title>(3.26747,1)</title></rect><rect x="510" y="199.957" width="6" height="0.0433322" stroke="black" stroke-width="1" fill="blue" opacity="1" tooltip="enable"><title>(3.30637,2)</title></rect><rect x="516" y="199.935" width="6" height="0.0649984" stroke="black" stroke-width="1" fill="blue" opacity="1" tooltip="enable"><title>(3.34527,3)</title></rect><rect x="522" y="199.827" width="6" height="0.173329" stroke="black" stroke-width="1" fill="blue" opacity="1" tooltip="enable"><title>(3.38417,8)</title></rect><rect x="528" y="199.978" width="6" height="0.0216661" stroke="black" stroke-width="1" fill="blue" opacity="1" tooltip="enable"><title>(3.42307,1)</title></rect><rect x="534" y="199.957" width="6" height="0.0433322" stroke="black" stroke-width="1" fill="blue" opacity="1" tooltip="enable"><title>(3.46197,2)</title></rect><rect x="540" y="199.978" width="6" height="0.0216661" stroke="black" stroke-width="1" fill="blue" opacity="1" tooltip="enable"><title>(3.50087,1)</title></rect><rect x="546" y="199.978" width="6" height="0.0216661" stroke="black" stroke-width="1" fill="blue" opacity="1" tooltip="enable"><title>(3.53976,1)</title></rect><rect x="552" y="199.978" width="6" height="0.0216661" stroke="black" stroke-width="1" fill="blue" opacity="1" tooltip="enable"><title>(3.57866,1)</title></rect><rect x="558" y="199.978" width="6" height="0.0216661" stroke="black" stroke-width="1" fill="blue" opacity="1" tooltip="enable"><title>(3.61756,1)</title></rect><rect x="564" y="200" width="6" height="0" stroke="black" stroke-width="1" fill="blue" opacity="1" tooltip="enable"><title>(3.65646,0)</title></rect><rect x="570" y="199.935" width="6" height="0.0649984" stroke="black" stroke-width="1" fill="blue" opacity="1" tooltip="enable"><title>(3.69536,3)</title></rect><rect x="576" y="200" width="6" height="0" stroke="black" stroke-width="1" fill="blue" opacity="1" tooltip="enable"><title>(3.73426,0)</title></rect><rect x="582" y="199.957" width="6" height="0.0433322" stroke="black" stroke-width="1" fill="blue" opacity="1" tooltip="enable"><title>(3.77316,2)</title></rect><rect x="588" y="199.978" width="6" height="0.0216661" stroke="black" stroke-width="1" fill="blue" opacity="1" tooltip="enable"><title>(3.81205,1)</title></rect><rect x="594" y="199.978" width="6" height="0.0216661" stroke="black" stroke-width="1" fill="blue" opacity="1" tooltip="enable"><title>(3.85095,1)</title></rect><text x="30" y="240" font-size="20" fill="black">0</text>
<text x="600" y="240" font-size="20" fill="black">3.88985</text>
<polyline points="0,220,600,220" stroke="black" stroke-width="1" fill="none" opacity="1"/>
<text x="720" y="20" font-size="20" fill="black">9231</text>
<text x="720" y="200" font-size="20" fill="black">0</text>
<polyline points="660,0,660,200" stroke="black" stroke-width="1" fill="none" opacity="1"/>
</svg>