<?xml version="1.0" standalone="yes"?>
<!-- SVG graphic -->
<svg xmlns='http://www.w3.org/2000/svg' xmlns:xlink='http://www.w3.org/1999/xlink'
width="70px" height="70px" preserveAspectRatio="xMinYMin meet" viewBox="0 0 70 70" version="1.1">
<rect x="5" y="0" width="2.5" height="2.5" fill="rgb(196,0,58)" opacity="1"/>
<rect x="10" y="0" width="2.5" height="2.5" fill="rgb(96,0,158)" opacity="1"/>
<rect x="15" y="0" width="2.5" height="2.5" fill="rgb(69,0,185)" opacity="1"/>
<rect x="20" y="0" width="2.5" height="2.5" fill="rgb(57,0,197)" opacity="1"/>
<rect x="25" y="0" width="2.5" height="2.5" fill="rgb(28,0,226)" opacity="1"/>
<rect x="30" y="0" width="2.5" height="2.5" fill="rgb(23,0,231)" opacity="1"/>
<rect x="35" y="0" width="2.5" height="2.5" fill="rgb(24,0,230)" opacity="1"/>
<rect x="40" y="0" width="2.5" height="2.5" fill="rgb(22,0,232)" opacity="1"/>
<rect x="10" y="5" width="2.5" height="2.5" fill="rgb(250,0,4)" opacity="1"/>
<rect x="15" y="5" width="2.5" height="2.5" fill="rgb(148,0,106)" opacity="1"/>
<rect x="20" y="5" width="2.5" height="2.5" fill="rgb(97,0,157)" opacity="1"/>
<rect x="25" y="5" width="2.5" height="2.5" fill="rgb(65,0,189)" opacity="1"/>
<rect x="30" y="5" width="2.5" height="2.5" fill="rgb(47,0,207)" opacity="1"/>
<rect x="35" y="5" width="2.5" height="2.5" fill="rgb(45,0,209)" opacity="1"/>
<rect x="40" y="5" width="2.5" height="2.5" fill="rgb(23,0,231)" opacity="1"/>
<rect x="15" y="10" width="2.5" height="2.5" fill="rgb(255,0,0)" opacity="1"/>
<rect x="20" y="10" width="2.5" height="2.5" fill="rgb(164,0,90)" opacity="1"/>
<rect x="25" y="10" width="2.5" height="2.5" fill="rgb(100,0,154)" opacity="1"/>
<rect x="30" y="10" width="2.5" height="2.5" fill="rgb(76,0,178)" opacity="1"/>
<rect x="35" y="10" width="2.5" height="2.5" fill="rgb(56,0,198)" opacity="1"/>
<rect x="40" y="10" width="2.5" height="2.5" fill="rgb(34,0,220)" opacity="1"/>
<rect x="20" y="15" width="2.5" height="2.5" fill="rgb(195,0,59)" opacity="1"/>
<rect x="25" y="15" width="2.5" height="2.5" fill="rgb(118,0,136)" opacity="1"/>
<rect x="30" y="15" width="2.5" height="2.5" fill="rgb(93,0,161)" opacity="1"/>
<rect x="35" y="15" width="2.5" height="2.5" fill="rgb(64,0,190)" opacity="1"/>
<rect x="40" y="15" width="2.5" height="2.5" fill="rgb(40,0,214)" opacity="1"/>
<rect x="25" y="20" width="2.5" height="2.5" fill="rgb(163,0,91)" opacity="1"/>
<rect x="30" y="20" width="2.5" height="2.5" fill="rgb(121,0,133)" opacity="1"/>
<rect x="35" y="20" width="2.5" height="2.5" fill="rgb(97,0,157)" opacity="1"/>
<rect x="40" y="20" width="2.5" height="2.5" fill="rgb(59,0,195)" opacity="1"/>
<rect x="45" y="20" width="2.5" height="2.5" fill="rgb(9,0,245)" opacity="1"/>
<rect x="30" y="25" width="2.5" height="2.5" fill="rgb(148,0,106)" opacity="1"/>
<rect x="35" y="25" width="2.5" height="2.5" fill="rgb(112,0,142)" opacity="1"/>
<rect x="40" y="25" width="2.5" height="2.5" fill="rgb(66,0,188)" opacity="1"/>
<rect x="45" y="25" width="2.5" height="2.5" fill="rgb(12,0,242)" opacity="1"/>
<rect x="35" y="30" width="2.5" height="2.5" fill="rgb(165,0,89)" opacity="1"/>
<rect x="40" y="30" width="2.5" height="2.5" fill="rgb(94,0,160)" opacity="1"/>
<rect x="45" y="30" width="2.5" height="2.5" fill="rgb(19,0,235)" opacity="1"/>
<rect x="40" y="35" width="2.5" height="2.5" fill="rgb(169,0,85)" opacity="1"/>
<rect x="45" y="35" width="2.5" height="2.5" fill="rgb(27,0,227)" opacity="1"/>
<rect x="50" y="35" width="2.5" height="2.5" fill="rgb(26,0,228)" opacity="1"/>
<rect x="45" y="40" width="2.5" height="2.5" fill="rgb(58,0,196)" opacity="1"/>
<rect x="50" y="40" width="2.5" height="2.5" fill="rgb(41,0,213)" opacity="1"/>
<text x="60" y="5" font-size="5" fill="black">0</text>
<text x="60" y="50" font-size="5" fill="black">11</text>
<polyline points="60,10,60,45" stroke="black" stroke-width="1" fill="none" opacity="1"/>
<text x="5" y="60" font-size="5" fill="black">0</text>
<text x="50" y="60" font-size="5" fill="black">11</text>
<polyline points="10,60,45,60" stroke="black" stroke-width="1" fill="none" opacity="1"/>
</svg>