<?xml version="1.0" standalone="yes"?>
<!-- SVG graphic -->
<svg xmlns='http://www.w3.org/2000/svg' xmlns:xlink='http://www.w3.org/1999/xlink'
 version="1.1">
<rect x="0" y="0" width="6" height="200" stroke="black" stroke-width="1" fill="blue" opacity="1" tooltip="enable"><title>(0,9747)</title></rect><rect x="6" y="117.8" width="6" height="82.1996" stroke="black" stroke-width="1" fill="blue" opacity="1" tooltip="enable"><title>(0.0381339,4006)</title></rect><rect x="12" y="133.58" width="6" height="66.4204" stroke="black" stroke-width="1" fill="blue" opacity="1" tooltip="enable"><title>(0.0762677,3237)</title></rect><rect x="18" y="142.711" width="6" height="57.2894" stroke="black" stroke-width="1" fill="blue" opacity="1" tooltip="enable"><title>(0.114402,2792)</title></rect><rect x="24" y="150.467" width="6" height="49.5332" stroke="black" stroke-width="1" fill="blue" opacity="1" tooltip="enable"><title>(0.152535,2414)</title></rect><rect x="30" y="154.222" width="6" height="45.7782" stroke="black" stroke-width="1" fill="blue" opacity="1" tooltip="enable"><title>(0.190669,2231)</title></rect><rect x="36" y="155.166" width="6" height="44.8343" stroke="black" stroke-width="1" fill="blue" opacity="1" tooltip="enable"><title>(0.228803,2185)</title></rect><rect x="42" y="162.06" width="6" height="37.9399" stroke="black" stroke-width="1" fill="blue" opacity="1" tooltip="enable"><title>(0.266937,1849)</title></rect><rect x="48" y="163.825" width="6" height="36.1752" stroke="black" stroke-width="1" fill="blue" opacity="1" tooltip="enable"><title>(0.305071,1763)</title></rect><rect x="54" y="168.585" width="6" height="31.4148" stroke="black" stroke-width="1" fill="blue" opacity="1" tooltip="enable"><title>(0.343205,1531)</title></rect><rect x="60" y="173.715" width="6" height="26.285" stroke="black" stroke-width="1" fill="blue" opacity="1" tooltip="enable"><title>(0.381339,1281)</title></rect><rect x="66" y="176.485" width="6" height="23.5149" stroke="black" stroke-width="1" fill="blue" opacity="1" tooltip="enable"><title>(0.419472,1146)</title></rect><rect x="72" y="179.132" width="6" height="20.868" stroke="black" stroke-width="1" fill="blue" opacity="1" tooltip="enable"><title>(0.457606,1017)</title></rect><rect x="78" y="178.229" width="6" height="21.7708" stroke="black" stroke-width="1" fill="blue" opacity="1" tooltip="enable"><title>(0.49574,1061)</title></rect><rect x="84" y="182.271" width="6" height="17.7285" stroke="black" stroke-width="1" fill="blue" opacity="1" tooltip="enable"><title>(0.533874,864)</title></rect><rect x="90" y="184.713" width="6" height="15.2868" stroke="black" stroke-width="1" fill="blue" opacity="1" tooltip="enable"><title>(0.572008,745)</title></rect><rect x="96" y="186.252" width="6" height="13.7478" stroke="black" stroke-width="1" fill="blue" opacity="1" tooltip="enable"><title>(0.610142,670)</title></rect><rect x="102" y="187.052" width="6" height="12.9476" stroke="black" stroke-width="1" fill="blue" opacity="1" tooltip="enable"><title>(0.648276,631)</title></rect><rect x="108" y="187.955" width="6" height="12.0447" stroke="black" stroke-width="1" fill="blue" opacity="1" tooltip="enable"><title>(0.686409,587)</title></rect><rect x="114" y="189.371" width="6" height="10.6289" stroke="black" stroke-width="1" fill="blue" opacity="1" tooltip="enable"><title>(0.724543,518)</title></rect><rect x="120" y="189.597" width="6" height="10.4032" stroke="black" stroke-width="1" fill="blue" opacity="1" tooltip="enable"><title>(0.762677,507)</title></rect><rect x="126" y="190.828" width="6" height="9.17205" stroke="black" stroke-width="1" fill="blue" opacity="1" tooltip="enable"><title>(0.800811,447)</title></rect><rect x="132" y="191.936" width="6" height="8.06402" stroke="black" stroke-width="1" fill="blue" opacity="1" tooltip="enable"><title>(0.838945,393)</title></rect><rect x="138" y="192.654" width="6" height="7.34585" stroke="black" stroke-width="1" fill="blue" opacity="1" tooltip="enable"><title>(0.877079,358)</title></rect><rect x="144" y="192.962" width="6" height="7.03806" stroke="black" stroke-width="1" fill="blue" opacity="1" tooltip="enable"><title>(0.915213,343)</title></rect><rect x="150" y="193.167" width="6" height="6.83287" stroke="black" stroke-width="1" fill="blue" opacity="1" tooltip="enable"><title>(0.953346,333)</title></rect><rect x="156" y="194.48" width="6" height="5.51965" stroke="black" stroke-width="1" fill="blue" opacity="1" tooltip="enable"><title>(0.99148,269)</title></rect><rect x="162" y="194.768" width="6" height="5.23238" stroke="black" stroke-width="1" fill="blue" opacity="1" tooltip="enable"><title>(1.02961,255)</title></rect><rect x="168" y="195.568" width="6" height="4.43213" stroke="black" stroke-width="1" fill="blue" opacity="1" tooltip="enable"><title>(1.06775,216)</title></rect><rect x="174" y="195.301" width="6" height="4.69888" stroke="black" stroke-width="1" fill="blue" opacity="1" tooltip="enable"><title>(1.10588,229)</title></rect><rect x="180" y="195.547" width="6" height="4.45265" stroke="black" stroke-width="1" fill="blue" opacity="1" tooltip="enable"><title>(1.14402,217)</title></rect><rect x="186" y="194.993" width="6" height="5.00667" stroke="black" stroke-width="1" fill="blue" opacity="1" tooltip="enable"><title>(1.18215,244)</title></rect><rect x="192" y="196.737" width="6" height="3.26254" stroke="black" stroke-width="1" fill="blue" opacity="1" tooltip="enable"><title>(1.22028,159)</title></rect><rect x="198" y="196.491" width="6" height="3.50877" stroke="black" stroke-width="1" fill="blue" opacity="1" tooltip="enable"><title>(1.25842,171)</title></rect><rect x="204" y="196.327" width="6" height="3.67292" stroke="black" stroke-width="1" fill="blue" opacity="1" tooltip="enable"><title>(1.29655,179)</title></rect><rect x="210" y="197.189" width="6" height="2.81112" stroke="black" stroke-width="1" fill="blue" opacity="1" tooltip="enable"><title>(1.33469,137)</title></rect><rect x="216" y="196.902" width="6" height="3.09839" stroke="black" stroke-width="1" fill="blue" opacity="1" tooltip="enable"><title>(1.37282,151)</title></rect><rect x="222" y="196.861" width="6" height="3.13943" stroke="black" stroke-width="1" fill="blue" opacity="1" tooltip="enable"><title>(1.41095,153)</title></rect><rect x="228" y="197.415" width="6" height="2.58541" stroke="black" stroke-width="1" fill="blue" opacity="1" tooltip="enable"><title>(1.44909,126)</title></rect><rect x="234" y="197.784" width="6" height="2.21607" stroke="black" stroke-width="1" fill="blue" opacity="1" tooltip="enable"><title>(1.48722,108)</title></rect><rect x="240" y="197.476" width="6" height="2.52385" stroke="black" stroke-width="1" fill="blue" opacity="1" tooltip="enable"><title>(1.52535,123)</title></rect><rect x="246" y="197.763" width="6" height="2.23659" stroke="black" stroke-width="1" fill="blue" opacity="1" tooltip="enable"><title>(1.56349,109)</title></rect><rect x="252" y="197.702" width="6" height="2.29814" stroke="black" stroke-width="1" fill="blue" opacity="1" tooltip="enable"><title>(1.60162,112)</title></rect><rect x="258" y="198.235" width="6" height="1.76465" stroke="black" stroke-width="1" fill="blue" opacity="1" tooltip="enable"><title>(1.63976,86)</title></rect><rect x="264" y="197.989" width="6" height="2.01087" stroke="black" stroke-width="1" fill="blue" opacity="1" tooltip="enable"><title>(1.67789,98)</title></rect><rect x="270" y="198.605" width="6" height="1.3953" stroke="black" stroke-width="1" fill="blue" opacity="1" tooltip="enable"><title>(1.71602,68)</title></rect><rect x="276" y="198.215" width="6" height="1.78516" stroke="black" stroke-width="1" fill="blue" opacity="1" tooltip="enable"><title>(1.75416,87)</title></rect><rect x="282" y="198.153" width="6" height="1.84672" stroke="black" stroke-width="1" fill="blue" opacity="1" tooltip="enable"><title>(1.79229,90)</title></rect><rect x="288" y="198.748" width="6" height="1.25167" stroke="black" stroke-width="1" fill="blue" opacity="1" tooltip="enable"><title>(1.83043,61)</title></rect><rect x="294" y="198.871" width="6" height="1.12855" stroke="black" stroke-width="1" fill="blue" opacity="1" tooltip="enable"><title>(1.86856,55)</title></rect><rect x="300" y="198.83" width="6" height="1.16959" stroke="black" stroke-width="1" fill="blue" opacity="1" tooltip="enable"><title>(1.90669,57)</title></rect><rect x="306" y="198.892" width="6" height="1.10803" stroke="black" stroke-width="1" fill="blue" opacity="1" tooltip="enable"><title>(1.94483,54)</title></rect><rect x="312" y="199.056" width="6" height="0.94388" stroke="black" stroke-width="1" fill="blue" opacity="1" tooltip="enable"><title>(1.98296,46)</title></rect><rect x="318" y="199.015" width="6" height="0.984918" stroke="black" stroke-width="1" fill="blue" opacity="1" tooltip="enable"><title>(2.02109,48)</title></rect><rect x="324" y="199.2" width="6" height="0.800246" stroke="black" stroke-width="1" fill="blue" opacity="1" tooltip="enable"><title>(2.05923,39)</title></rect><rect x="330" y="199.405" width="6" height="0.595055" stroke="black" stroke-width="1" fill="blue" opacity="1" tooltip="enable"><title>(2.09736,29)</title></rect><rect x="336" y="199.097" width="6" height="0.902842" stroke="black" stroke-width="1" fill="blue" opacity="1" tooltip="enable"><title>(2.1355,44)</title></rect><rect x="342" y="199.015" width="6" height="0.984918" stroke="black" stroke-width="1" fill="blue" opacity="1" tooltip="enable"><title>(2.17363,48)</title></rect><rect x="348" y="199.405" width="6" height="0.595055" stroke="black" stroke-width="1" fill="blue" opacity="1" tooltip="enable"><title>(2.21176,29)</title></rect><rect x="354" y="199.261" width="6" height="0.738689" stroke="black" stroke-width="1" fill="blue" opacity="1" tooltip="enable"><title>(2.2499,36)</title></rect><rect x="360" y="199.302" width="6" height="0.697651" stroke="black" stroke-width="1" fill="blue" opacity="1" tooltip="enable"><title>(2.28803,34)</title></rect><rect x="366" y="199.384" width="6" height="0.615574" stroke="black" stroke-width="1" fill="blue" opacity="1" tooltip="enable"><title>(2.32617,30)</title></rect><rect x="372" y="199.384" width="6" height="0.615574" stroke="black" stroke-width="1" fill="blue" opacity="1" tooltip="enable"><title>(2.3643,30)</title></rect><rect x="378" y="199.425" width="6" height="0.574536" stroke="black" stroke-width="1" fill="blue" opacity="1" tooltip="enable"><title>(2.40243,28)</title></rect><rect x="384" y="199.487" width="6" height="0.512978" stroke="black" stroke-width="1" fill="blue" opacity="1" tooltip="enable"><title>(2.44057,25)</title></rect><rect x="390" y="199.692" width="6" height="0.307787" stroke="black" stroke-width="1" fill="blue" opacity="1" tooltip="enable"><title>(2.4787,15)</title></rect><rect x="396" y="199.59" width="6" height="0.410383" stroke="black" stroke-width="1" fill="blue" opacity="1" tooltip="enable"><title>(2.51683,20)</title></rect><rect x="402" y="199.487" width="6" height="0.512978" stroke="black" stroke-width="1" fill="blue" opacity="1" tooltip="enable"><title>(2.55497,25)</title></rect><rect x="408" y="199.631" width="6" height="0.369344" stroke="black" stroke-width="1" fill="blue" opacity="1" tooltip="enable"><title>(2.5931,18)</title></rect><rect x="414" y="199.59" width="6" height="0.410383" stroke="black" stroke-width="1" fill="blue" opacity="1" tooltip="enable"><title>(2.63124,20)</title></rect><rect x="420" y="199.59" width="6" height="0.410383" stroke="black" stroke-width="1" fill="blue" opacity="1" tooltip="enable"><title>(2.66937,20)</title></rect><rect x="426" y="199.384" width="6" height="0.615574" stroke="black" stroke-width="1" fill="blue" opacity="1" tooltip="enable"><title>(2.7075,30)</title></rect><rect x="432" y="199.713" width="6" height="0.287268" stroke="black" stroke-width="1" fill="blue" opacity="1" tooltip="enable"><title>(2.74564,14)</title></rect><rect x="438" y="199.815" width="6" height="0.184672" stroke="black" stroke-width="1" fill="blue" opacity="1" tooltip="enable"><title>(2.78377,9)</title></rect><rect x="444" y="199.774" width="6" height="0.22571" stroke="black" stroke-width="1" fill="blue" opacity="1" tooltip="enable"><title>(2.82191,11)</title></rect><rect x="450" y="199.877" width="6" height="0.123115" stroke="black" stroke-width="1" fill="blue" opacity="1" tooltip="enable"><title>(2.86004,6)</title></rect><rect x="456" y="199.815" width="6" height="0.184672" stroke="black" stroke-width="1" fill="blue" opacity="1" tooltip="enable"><title>(2.89817,9)</title></rect><rect x="462" y="199.774" width="6" height="0.22571" stroke="black" stroke-width="1" fill="blue" opacity="1" tooltip="enable"><title>(2.93631,11)</title></rect><rect x="468" y="199.815" width="6" height="0.184672" stroke="black" stroke-width="1" fill="blue" opacity="1" tooltip="enable"><title>(2.97444,9)</title></rect><rect x="474" y="199.815" width="6" height="0.184672" stroke="black" stroke-width="1" fill="blue" opacity="1" tooltip="enable"><title>(3.01257,9)</title></rect><rect x="480" y="199.856" width="6" height="0.143634" stroke="black" stroke-width="1" fill="blue" opacity="1" tooltip="enable"><title>(3.05071,7)</title></rect><rect x="486" y="199.918" width="6" height="0.0820765" stroke="black" stroke-width="1" fill="blue" opacity="1" tooltip="enable"><title>(3.08884,4)</title></rect><rect x="492" y="199.836" width="6" height="0.164153" stroke="black" stroke-width="1" fill="blue" opacity="1" tooltip="enable"><title>(3.12698,8)</title></rect><rect x="498" y="199.877" width="6" height="0.123115" stroke="black" stroke-width="1" fill="blue" opacity="1" tooltip="enable"><title>(3.16511,6)</title></rect><rect x="504" y="199.856" width="6" height="0.143634" stroke="black" stroke-width="1" fill="blue" opacity="1" tooltip="enable"><title>(3.20324,7)</title></rect><rect x="510" y="199.815" width="6" height="0.184672" stroke="black" stroke-width="1" fill="blue" opacity="1" tooltip="enable"><title>(3.24138,9)</title></rect><rect x="516" y="199.856" width="6" height="0.143634" stroke="black" stroke-width="1" fill="blue" opacity="1" tooltip="enable"><title>(3.27951,7)</title></rect><rect x="522" y="199.897" width="6" height="0.102596" stroke="black" stroke-width="1" fill="blue" opacity="1" tooltip="enable"><title>(3.31765,5)</title></rect><rect x="528" y="199.959" width="6" height="0.0410383" stroke="black" stroke-width="1" fill="blue" opacity="1" tooltip="enable"><title>(3.35578,2)</title></rect><rect x="534" y="199.959" width="6" height="0.0410383" stroke="black" stroke-width="1" fill="blue" opacity="1" tooltip="enable"><title>(3.39391,2)</title></rect><rect x="540" y="199.959" width="6" height="0.0410383" stroke="black" stroke-width="1" fill="blue" opacity="1" tooltip="enable"><title>(3.43205,2)</title></rect><rect x="546" y="199.959" width="6" height="0.0410383" stroke="black" stroke-width="1" fill="blue" opacity="1" tooltip="enable"><title>(3.47018,2)</title></rect><rect x="552" y="199.959" width="6" height="0.0410383" stroke="black" stroke-width="1" fill="blue" opacity="1" tooltip="enable"><title>(3.50832,2)</title></rect><rect x="558" y="199.918" width="6" height="0.0820765" stroke="black" stroke-width="1" fill="blue" opacity="1" tooltip="enable"><title>(3.54645,4)</title></rect><rect x="564" y="199.938" width="6" height="0.0615574" stroke="black" stroke-width="1" fill="blue" opacity="1" tooltip="enable"><title>(3.58458,3)</title></rect><rect x="570" y="199.959" width="6" height="0.0410383" stroke="black" stroke-width="1" fill="blue" opacity="1" tooltip="enable"><title>(3.62272,2)</title></rect><rect x="576" y="199.938" width="6" height="0.0615574" stroke="black" stroke-width="1" fill="blue" opacity="1" tooltip="enable"><title>(3.66085,3)</title></rect><rect x="582" y="199.938" width="6" height="0.0615574" stroke="black" stroke-width="1" fill="blue" opacity="1" tooltip="enable"><title>(3.69898,3)</title></rect><rect x="588" y="199.979" width="6" height="0.0205191" stroke="black" stroke-width="1" fill="blue" opacity="1" tooltip="enable"><title>(3.73712,1)</title></rect><rect x="594" y="200" width="6" height="0" stroke="black" stroke-width="1" fill="blue" opacity="1" tooltip="enable"><title>(3.77525,0)</title></rect><text x="30" y="240" font-size="20" fill="black">0</text>
<text x="600" y="240" font-size="20" fill="black">3.81339</text>
<polyline points="0,220,600,220" stroke="black" stroke-width="1" fill="none" opacity="1"/>
<text x="720" y="20" font-size="20" fill="black">9747</text>
<text x="720" y="200" font-size="20" fill="black">0</text>
<polyline points="660,0,660,200" stroke="black" stroke-width="1" fill="none" opacity="1"/>
</svg>