<?xml version="1.0" standalone="yes"?>
<!-- SVG graphic -->
<svg xmlns='http://www.w3.org/2000/svg' xmlns:xlink='http://www.w3.org/1999/xlink'
 version="1.1">
<rect x="0" y="-1.52588e-05" width="6" height="200" stroke="black" stroke-width="1" fill="blue" opacity="1" tooltip="enable"><title>(0,9734)</title></rect><rect x="6" y="116.93" width="6" height="83.0697" stroke="black" stroke-width="1" fill="blue" opacity="1" tooltip="enable"><title>(0.0381467,4043)</title></rect><rect x="12" y="134.21" width="6" height="65.79" stroke="black" stroke-width="1" fill="blue" opacity="1" tooltip="enable"><title>(0.0762934,3202)</title></rect><rect x="18" y="143.374" width="6" height="56.6263" stroke="black" stroke-width="1" fill="blue" opacity="1" tooltip="enable"><title>(0.11444,2756)</title></rect><rect x="24" y="149.62" width="6" height="50.3801" stroke="black" stroke-width="1" fill="blue" opacity="1" tooltip="enable"><title>(0.152587,2452)</title></rect><rect x="30" y="153.873" width="6" height="46.127" stroke="black" stroke-width="1" fill="blue" opacity="1" tooltip="enable"><title>(0.190733,2245)</title></rect><rect x="36" y="156.524" width="6" height="43.4765" stroke="black" stroke-width="1" fill="blue" opacity="1" tooltip="enable"><title>(0.22888,2116)</title></rect><rect x="42" y="161.414" width="6" height="38.5864" stroke="black" stroke-width="1" fill="blue" opacity="1" tooltip="enable"><title>(0.267027,1878)</title></rect><rect x="48" y="164.557" width="6" height="35.4428" stroke="black" stroke-width="1" fill="blue" opacity="1" tooltip="enable"><title>(0.305173,1725)</title></rect><rect x="54" y="168.851" width="6" height="31.1486" stroke="black" stroke-width="1" fill="blue" opacity="1" tooltip="enable"><title>(0.34332,1516)</title></rect><rect x="60" y="172.961" width="6" height="27.0392" stroke="black" stroke-width="1" fill="blue" opacity="1" tooltip="enable"><title>(0.381467,1316)</title></rect><rect x="66" y="177.152" width="6" height="22.8478" stroke="black" stroke-width="1" fill="blue" opacity="1" tooltip="enable"><title>(0.419614,1112)</title></rect><rect x="72" y="178.796" width="6" height="21.204" stroke="black" stroke-width="1" fill="blue" opacity="1" tooltip="enable"><title>(0.45776,1032)</title></rect><rect x="78" y="178.159" width="6" height="21.841" stroke="black" stroke-width="1" fill="blue" opacity="1" tooltip="enable"><title>(0.495907,1063)</title></rect><rect x="84" y="182.351" width="6" height="17.6495" stroke="black" stroke-width="1" fill="blue" opacity="1" tooltip="enable"><title>(0.534054,859)</title></rect><rect x="90" y="184.59" width="6" height="15.4099" stroke="black" stroke-width="1" fill="blue" opacity="1" tooltip="enable"><title>(0.5722,750)</title></rect><rect x="96" y="186.48" width="6" height="13.5196" stroke="black" stroke-width="1" fill="blue" opacity="1" tooltip="enable"><title>(0.610347,658)</title></rect><rect x="102" y="187.138" width="6" height="12.8621" stroke="black" stroke-width="1" fill="blue" opacity="1" tooltip="enable"><title>(0.648494,626)</title></rect><rect x="108" y="187.857" width="6" height="12.143" stroke="black" stroke-width="1" fill="blue" opacity="1" tooltip="enable"><title>(0.68664,591)</title></rect><rect x="114" y="189.049" width="6" height="10.9513" stroke="black" stroke-width="1" fill="blue" opacity="1" tooltip="enable"><title>(0.724787,533)</title></rect><rect x="120" y="189.542" width="6" height="10.4582" stroke="black" stroke-width="1" fill="blue" opacity="1" tooltip="enable"><title>(0.762934,509)</title></rect><rect x="126" y="190.569" width="6" height="9.43086" stroke="black" stroke-width="1" fill="blue" opacity="1" tooltip="enable"><title>(0.80108,459)</title></rect><rect x="132" y="192.48" width="6" height="7.52003" stroke="black" stroke-width="1" fill="blue" opacity="1" tooltip="enable"><title>(0.839227,366)</title></rect><rect x="138" y="192.624" width="6" height="7.37621" stroke="black" stroke-width="1" fill="blue" opacity="1" tooltip="enable"><title>(0.877374,359)</title></rect><rect x="144" y="192.85" width="6" height="7.1502" stroke="black" stroke-width="1" fill="blue" opacity="1" tooltip="enable"><title>(0.91552,348)</title></rect><rect x="150" y="192.994" width="6" height="7.00637" stroke="black" stroke-width="1" fill="blue" opacity="1" tooltip="enable"><title>(0.953667,341)</title></rect><rect x="156" y="194.678" width="6" height="5.32155" stroke="black" stroke-width="1" fill="blue" opacity="1" tooltip="enable"><title>(0.991814,259)</title></rect><rect x="162" y="194.822" width="6" height="5.17773" stroke="black" stroke-width="1" fill="blue" opacity="1" tooltip="enable"><title>(1.02996,252)</title></rect><rect x="168" y="195.172" width="6" height="4.82844" stroke="black" stroke-width="1" fill="blue" opacity="1" tooltip="enable"><title>(1.06811,235)</title></rect><rect x="174" y="195.48" width="6" height="4.52024" stroke="black" stroke-width="1" fill="blue" opacity="1" tooltip="enable"><title>(1.10625,220)</title></rect><rect x="180" y="195.172" width="6" height="4.82844" stroke="black" stroke-width="1" fill="blue" opacity="1" tooltip="enable"><title>(1.1444,235)</title></rect><rect x="186" y="195.809" width="6" height="4.19149" stroke="black" stroke-width="1" fill="blue" opacity="1" tooltip="enable"><title>(1.18255,204)</title></rect><rect x="192" y="196.569" width="6" height="3.43127" stroke="black" stroke-width="1" fill="blue" opacity="1" tooltip="enable"><title>(1.22069,167)</title></rect><rect x="198" y="196.569" width="6" height="3.43127" stroke="black" stroke-width="1" fill="blue" opacity="1" tooltip="enable"><title>(1.25884,167)</title></rect><rect x="204" y="196.404" width="6" height="3.59564" stroke="black" stroke-width="1" fill="blue" opacity="1" tooltip="enable"><title>(1.29699,175)</title></rect><rect x="210" y="197.103" width="6" height="2.89706" stroke="black" stroke-width="1" fill="blue" opacity="1" tooltip="enable"><title>(1.33513,141)</title></rect><rect x="216" y="197.041" width="6" height="2.9587" stroke="black" stroke-width="1" fill="blue" opacity="1" tooltip="enable"><title>(1.37328,144)</title></rect><rect x="222" y="196.959" width="6" height="3.04089" stroke="black" stroke-width="1" fill="blue" opacity="1" tooltip="enable"><title>(1.41143,148)</title></rect><rect x="228" y="197.165" width="6" height="2.83542" stroke="black" stroke-width="1" fill="blue" opacity="1" tooltip="enable"><title>(1.44957,138)</title></rect><rect x="234" y="197.719" width="6" height="2.28067" stroke="black" stroke-width="1" fill="blue" opacity="1" tooltip="enable"><title>(1.48772,111)</title></rect><rect x="240" y="197.165" width="6" height="2.83542" stroke="black" stroke-width="1" fill="blue" opacity="1" tooltip="enable"><title>(1.52587,138)</title></rect><rect x="246" y="197.843" width="6" height="2.15739" stroke="black" stroke-width="1" fill="blue" opacity="1" tooltip="enable"><title>(1.56401,105)</title></rect><rect x="252" y="197.904" width="6" height="2.09575" stroke="black" stroke-width="1" fill="blue" opacity="1" tooltip="enable"><title>(1.60216,102)</title></rect><rect x="258" y="198.151" width="6" height="1.84919" stroke="black" stroke-width="1" fill="blue" opacity="1" tooltip="enable"><title>(1.64031,90)</title></rect><rect x="264" y="198.192" width="6" height="1.8081" stroke="black" stroke-width="1" fill="blue" opacity="1" tooltip="enable"><title>(1.67845,88)</title></rect><rect x="270" y="198.459" width="6" height="1.54099" stroke="black" stroke-width="1" fill="blue" opacity="1" tooltip="enable"><title>(1.7166,75)</title></rect><rect x="276" y="198.295" width="6" height="1.70536" stroke="black" stroke-width="1" fill="blue" opacity="1" tooltip="enable"><title>(1.75475,83)</title></rect><rect x="282" y="198.254" width="6" height="1.74646" stroke="black" stroke-width="1" fill="blue" opacity="1" tooltip="enable"><title>(1.79289,85)</title></rect><rect x="288" y="198.788" width="6" height="1.21225" stroke="black" stroke-width="1" fill="blue" opacity="1" tooltip="enable"><title>(1.83104,59)</title></rect><rect x="294" y="198.849" width="6" height="1.15061" stroke="black" stroke-width="1" fill="blue" opacity="1" tooltip="enable"><title>(1.86919,56)</title></rect><rect x="300" y="198.726" width="6" height="1.27389" stroke="black" stroke-width="1" fill="blue" opacity="1" tooltip="enable"><title>(1.90733,62)</title></rect><rect x="306" y="198.87" width="6" height="1.13006" stroke="black" stroke-width="1" fill="blue" opacity="1" tooltip="enable"><title>(1.94548,55)</title></rect><rect x="312" y="198.87" width="6" height="1.13006" stroke="black" stroke-width="1" fill="blue" opacity="1" tooltip="enable"><title>(1.98363,55)</title></rect><rect x="318" y="198.952" width="6" height="1.04787" stroke="black" stroke-width="1" fill="blue" opacity="1" tooltip="enable"><title>(2.02177,51)</title></rect><rect x="324" y="199.26" width="6" height="0.739675" stroke="black" stroke-width="1" fill="blue" opacity="1" tooltip="enable"><title>(2.05992,36)</title></rect><rect x="330" y="199.466" width="6" height="0.53421" stroke="black" stroke-width="1" fill="blue" opacity="1" tooltip="enable"><title>(2.09807,26)</title></rect><rect x="336" y="199.281" width="6" height="0.719129" stroke="black" stroke-width="1" fill="blue" opacity="1" tooltip="enable"><title>(2.13621,35)</title></rect><rect x="342" y="198.952" width="6" height="1.04787" stroke="black" stroke-width="1" fill="blue" opacity="1" tooltip="enable"><title>(2.17436,51)</title></rect><rect x="348" y="199.425" width="6" height="0.575303" stroke="black" stroke-width="1" fill="blue" opacity="1" tooltip="enable"><title>(2.21251,28)</title></rect><rect x="354" y="199.322" width="6" height="0.678036" stroke="black" stroke-width="1" fill="blue" opacity="1" tooltip="enable"><title>(2.25065,33)</title></rect><rect x="360" y="199.219" width="6" height="0.780768" stroke="black" stroke-width="1" fill="blue" opacity="1" tooltip="enable"><title>(2.2888,38)</title></rect><rect x="366" y="199.363" width="6" height="0.636943" stroke="black" stroke-width="1" fill="blue" opacity="1" tooltip="enable"><title>(2.32695,31)</title></rect><rect x="372" y="199.466" width="6" height="0.53421" stroke="black" stroke-width="1" fill="blue" opacity="1" tooltip="enable"><title>(2.36509,26)</title></rect><rect x="378" y="199.322" width="6" height="0.678036" stroke="black" stroke-width="1" fill="blue" opacity="1" tooltip="enable"><title>(2.40324,33)</title></rect><rect x="384" y="199.61" width="6" height="0.390384" stroke="black" stroke-width="1" fill="blue" opacity="1" tooltip="enable"><title>(2.44139,19)</title></rect><rect x="390" y="199.651" width="6" height="0.349291" stroke="black" stroke-width="1" fill="blue" opacity="1" tooltip="enable"><title>(2.47953,17)</title></rect><rect x="396" y="199.61" width="6" height="0.390384" stroke="black" stroke-width="1" fill="blue" opacity="1" tooltip="enable"><title>(2.51768,19)</title></rect><rect x="402" y="199.569" width="6" height="0.431477" stroke="black" stroke-width="1" fill="blue" opacity="1" tooltip="enable"><title>(2.55583,21)</title></rect><rect x="408" y="199.61" width="6" height="0.390384" stroke="black" stroke-width="1" fill="blue" opacity="1" tooltip="enable"><title>(2.59397,19)</title></rect><rect x="414" y="199.589" width="6" height="0.410931" stroke="black" stroke-width="1" fill="blue" opacity="1" tooltip="enable"><title>(2.63212,20)</title></rect><rect x="420" y="199.61" width="6" height="0.390384" stroke="black" stroke-width="1" fill="blue" opacity="1" tooltip="enable"><title>(2.67027,19)</title></rect><rect x="426" y="199.466" width="6" height="0.53421" stroke="black" stroke-width="1" fill="blue" opacity="1" tooltip="enable"><title>(2.70841,26)</title></rect><rect x="432" y="199.712" width="6" height="0.287652" stroke="black" stroke-width="1" fill="blue" opacity="1" tooltip="enable"><title>(2.74656,14)</title></rect><rect x="438" y="199.815" width="6" height="0.184919" stroke="black" stroke-width="1" fill="blue" opacity="1" tooltip="enable"><title>(2.78471,9)</title></rect><rect x="444" y="199.795" width="6" height="0.205465" stroke="black" stroke-width="1" fill="blue" opacity="1" tooltip="enable"><title>(2.82285,10)</title></rect><rect x="450" y="199.918" width="6" height="0.0821862" stroke="black" stroke-width="1" fill="blue" opacity="1" tooltip="enable"><title>(2.861,4)</title></rect><rect x="456" y="199.795" width="6" height="0.205465" stroke="black" stroke-width="1" fill="blue" opacity="1" tooltip="enable"><title>(2.89915,10)</title></rect><rect x="462" y="199.795" width="6" height="0.205465" stroke="black" stroke-width="1" fill="blue" opacity="1" tooltip="enable"><title>(2.93729,10)</title></rect><rect x="468" y="199.815" width="6" height="0.184919" stroke="black" stroke-width="1" fill="blue" opacity="1" tooltip="enable"><title>(2.97544,9)</title></rect><rect x="474" y="199.815" width="6" height="0.184919" stroke="black" stroke-width="1" fill="blue" opacity="1" tooltip="enable"><title>(3.01359,9)</title></rect><rect x="480" y="199.856" width="6" height="0.143826" stroke="black" stroke-width="1" fill="blue" opacity="1" tooltip="enable"><title>(3.05173,7)</title></rect><rect x="486" y="199.836" width="6" height="0.164372" stroke="black" stroke-width="1" fill="blue" opacity="1" tooltip="enable"><title>(3.08988,8)</title></rect><rect x="492" y="199.856" width="6" height="0.143826" stroke="black" stroke-width="1" fill="blue" opacity="1" tooltip="enable"><title>(3.12803,7)</title></rect><rect x="498" y="199.836" width="6" height="0.164372" stroke="black" stroke-width="1" fill="blue" opacity="1" tooltip="enable"><title>(3.16617,8)</title></rect><rect x="504" y="199.938" width="6" height="0.0616396" stroke="black" stroke-width="1" fill="blue" opacity="1" tooltip="enable"><title>(3.20432,3)</title></rect><rect x="510" y="199.753" width="6" height="0.246558" stroke="black" stroke-width="1" fill="blue" opacity="1" tooltip="enable"><title>(3.24247,12)</title></rect><rect x="516" y="199.877" width="6" height="0.123279" stroke="black" stroke-width="1" fill="blue" opacity="1" tooltip="enable"><title>(3.28061,6)</title></rect><rect x="522" y="199.918" width="6" height="0.0821862" stroke="black" stroke-width="1" fill="blue" opacity="1" tooltip="enable"><title>(3.31876,4)</title></rect><rect x="528" y="199.897" width="6" height="0.102733" stroke="black" stroke-width="1" fill="blue" opacity="1" tooltip="enable"><title>(3.35691,5)</title></rect><rect x="534" y="199.979" width="6" height="0.0205465" stroke="black" stroke-width="1" fill="blue" opacity="1" tooltip="enable"><title>(3.39505,1)</title></rect><rect x="540" y="199.938" width="6" height="0.0616396" stroke="black" stroke-width="1" fill="blue" opacity="1" tooltip="enable"><title>(3.4332,3)</title></rect><rect x="546" y="199.938" width="6" height="0.0616396" stroke="black" stroke-width="1" fill="blue" opacity="1" tooltip="enable"><title>(3.47135,3)</title></rect><rect x="552" y="199.918" width="6" height="0.0821862" stroke="black" stroke-width="1" fill="blue" opacity="1" tooltip="enable"><title>(3.50949,4)</title></rect><rect x="558" y="199.938" width="6" height="0.0616396" stroke="black" stroke-width="1" fill="blue" opacity="1" tooltip="enable"><title>(3.54764,3)</title></rect><rect x="564" y="199.959" width="6" height="0.0410931" stroke="black" stroke-width="1" fill="blue" opacity="1" tooltip="enable"><title>(3.58579,2)</title></rect><rect x="570" y="199.959" width="6" height="0.0410931" stroke="black" stroke-width="1" fill="blue" opacity="1" tooltip="enable"><title>(3.62393,2)</title></rect><rect x="576" y="199.979" width="6" height="0.0205465" stroke="black" stroke-width="1" fill="blue" opacity="1" tooltip="enable"><title>(3.66208,1)</title></rect><rect x="582" y="199.918" width="6" height="0.0821862" stroke="black" stroke-width="1" fill="blue" opacity="1" tooltip="enable"><title>(3.70023,4)</title></rect><rect x="588" y="200" width="6" height="0" stroke="black" stroke-width="1" fill="blue" opacity="1" tooltip="enable"><title>(3.73837,0)</title></rect><rect x="594" y="199.979" width="6" height="0.0205465" stroke="black" stroke-width="1" fill="blue" opacity="1" tooltip="enable"><title>(3.77652,1)</title></rect><text x="30" y="240" font-size="20" fill="black">0</text>
<text x="600" y="240" font-size="20" fill="black">3.81467</text>
<polyline points="0,220,600,220" stroke="black" stroke-width="1" fill="none" opacity="1"/>
<text x="720" y="20" font-size="20" fill="black">9734</text>
<text x="720" y="200" font-size="20" fill="black">0</text>
<polyline points="660,0,660,200" stroke="black" stroke-width="1" fill="none" opacity="1"/>
</svg>